<svg xmlns="http://www.w3.org/2000/svg" width="258.971" height="132.162" viewBox="0 0 258.971 132.162">
  <g id="Group_221" data-name="Group 221" transform="translate(-335.265 -77.172)">
    <g id="Group_58" data-name="Group 58" transform="translate(366.45 77.172)">
      <g id="Group_57" data-name="Group 57">
        <path id="Path_177" data-name="Path 177" d="M355.968,234.815a7.866,7.866,0,0,1-.642,1.287c-.323.551-.69,1.056-.966,1.1a13.864,13.864,0,0,1-2.343-.046c-1.012-.092-2.207-.229-3.585-.321a43.566,43.566,0,0,0-4.458-.23c-.138,1.885-.368,4.963-.644,8.411-.368,4.642.092,10.157-.415,14.937a17.59,17.59,0,0,0,.278,5.332,5.773,5.773,0,0,1,.918-.047,15.77,15.77,0,0,1,2.942.093,17.91,17.91,0,0,0,3.034.092c.827-.046,1.47-.138,1.931-.138.459-.047.826,0,.964.184a.562.562,0,0,1,.137.414.5.5,0,0,1,0,.368v.184a.347.347,0,0,0-.045.23.351.351,0,0,1-.092.184,1.913,1.913,0,0,1-.138.367c-.092.23-.184.507-.322.782-.275.6-.6,1.149-.827,1.194a10.59,10.59,0,0,1-2.16.047c-.919-.047-1.976-.092-3.172-.184-.6,0-1.24-.047-1.93-.047h-1.011a8.767,8.767,0,0,0-1.057.047c-1.517.045-3.125,0-4.688.045a66.67,66.67,0,0,0-6.894.368,27.59,27.59,0,0,0-2.986.414c-.737.137-.828-1.2-.828-2.39.046-1.2.138-1.931.69-2.115a18.959,18.959,0,0,1,2.435.092c1.426.047,3.355.138,5.469.23.92.045,1.931.045,2.9,0-.552-3.264.322-10.479.689-18.154a74.716,74.716,0,0,0-.275-10.893h-.047a44.935,44.935,0,0,0-7.445,1.012c-1.93.414-3.08.781-3.217.827-.737.23-1.057-1.011-1.242-2.206s-.184-1.93.46-2.206a25.262,25.262,0,0,1,2.758-.322c1.608-.137,3.814-.275,6.159-.367,2.021-.046,4.228-.276,6.433-.414a34.784,34.784,0,0,1,6.573.092c1.379.184,2.483.23,3.4.275.919,0,1.608-.045,2.159-.045.553.045.92.092,1.1.322C356.151,233.8,356.151,234.171,355.968,234.815Z" transform="translate(-326.815 -232.867)" fill="#fff"/>
        <path id="Path_178" data-name="Path 178" d="M375.89,267.424a4.026,4.026,0,0,1-1.7.321,2.627,2.627,0,0,1-1.423-.275,1.3,1.3,0,0,1-.69-1.057v-1.379c.045-.827.045-1.975,0-3.309a35.542,35.542,0,0,0-.414-4.6,18.293,18.293,0,0,0-.6-2.528,12.619,12.619,0,0,0-.965-2.482,10.852,10.852,0,0,0-1.287-1.931q-.413-.413-.827-.827a3.242,3.242,0,0,1-.459-.367c-.138-.092-.323-.23-.46-.322a9.956,9.956,0,0,0-.964-.505,3.856,3.856,0,0,0-.92-.23,2.687,2.687,0,0,0-.873.046,2.79,2.79,0,0,0-.782.322,5.93,5.93,0,0,0-1.609,1.47,13.486,13.486,0,0,0-1.378,2.069c-.415.734-.782,1.563-1.149,2.343-.322.782-.642,1.608-.965,2.39a18.763,18.763,0,0,0-.919,2.9,19.386,19.386,0,0,0-.505,2.436,29.309,29.309,0,0,0-.322,3.355,8,8,0,0,1-.092,1.194c0,.505.045.827.045.874.046.275-.275.412-.734.459a7.727,7.727,0,0,1-1.7-.138c-1.149-.137-1.885-.321-2.022-.781,0-.046.092-.735.275-1.839.137-1.056.367-2.482.551-4.09a26.75,26.75,0,0,0,.138-4.32,34.772,34.772,0,0,1,.092-4.413,7.788,7.788,0,0,0-.505-3.539c-.138-.322-.184-.552,0-.689a.981.981,0,0,1,.367-.138h.322c.139,0,.276-.046.415-.046h.6c.275.046.551.046.874.092a3.033,3.033,0,0,1,1.332.46,5.936,5.936,0,0,1,.368,2.068,21.646,21.646,0,0,1,1.194-1.885,12.137,12.137,0,0,1,1.609-1.884,9.212,9.212,0,0,1,1.011-.873,7.358,7.358,0,0,1,2.712-1.241,5.948,5.948,0,0,1,1.563-.093,5.549,5.549,0,0,1,1.516.276,7.194,7.194,0,0,1,1.379.552,9.728,9.728,0,0,1,1.15.735c.367.275.734.551,1.056.827a17.086,17.086,0,0,1,1.563,1.608c.414.6.827,1.194,1.2,1.793a18.471,18.471,0,0,1,1.608,3.539,28.673,28.673,0,0,1,.919,3.355,26.558,26.558,0,0,1,.507,2.941c.137.874.229,1.7.321,2.436.046.735.093,1.333.138,1.838l.138,1.746A1.221,1.221,0,0,1,375.89,267.424Z" transform="translate(-323.437 -231.328)" fill="#fff"/>
        <path id="Path_179" data-name="Path 179" d="M401.918,248.08c-.045.184-.826,1.653-2.068,3.906-1.194,2.252-2.85,5.331-4.642,8.641-1.47,2.8-2.941,5.974-4.366,9.191-1.471,3.171-2.9,6.389-4.413,9.284a31.456,31.456,0,0,0-1.608,3.539,15.19,15.19,0,0,0-.552,1.471c-.045.23-.137.459-.184.643l-.092.323-.045.137H383.9v.092l-.045.138c-.046.092-.093.138-.138.23l-.092.184v.184a.344.344,0,0,0-.047.183c0,.093,0,.138.047.138v.138a.788.788,0,0,1,.092.23c0,.092-.092.137-.23.229s-.322.23-.644.414c-.092.046-.275.092-.552.184a2.865,2.865,0,0,1-.413.093h-.506a2.134,2.134,0,0,1-1.056-.276,1.108,1.108,0,0,1-.6-.827,2.852,2.852,0,0,1,.045-1.378,2.525,2.525,0,0,1,.231-.782c.045-.138.092-.23.137-.368.046-.092.093-.137.093-.229.045,0,.045,0,.045-.046V283.7h.046v-.138l.045-.045.092-.231.184-.459c.092-.322.23-.644.368-1.011.321-.644.644-1.379.966-2.16.689-1.517,1.516-3.264,2.435-5.056q1.1-2.274,2.343-4.688a7.3,7.3,0,0,1-1.424-1.471,22.323,22.323,0,0,1-2.022-3.079c-.69-1.2-1.333-2.573-2.023-4-.644-1.471-1.333-2.988-1.976-4.551-1.148-2.574-2.3-4.872-3.172-6.526s-1.516-2.712-1.563-2.8c-.414-.689.782-1.286,1.886-1.654,1.148-.414,1.885-.6,2.252-.092.047.045.367.965.873,2.39.507,1.378,1.149,3.309,1.93,5.332a43.464,43.464,0,0,0,2.575,5.331c.966,1.747,1.93,3.494,2.8,5.148a7.94,7.94,0,0,0,1.655,2.39c.689-1.287,1.331-2.573,1.976-3.861,2.16-4.321,3.952-8.272,5.194-11.169s1.975-4.78,2.067-4.963c.46-1.241,1.747-.827,2.8-.275S402.24,247.114,401.918,248.08Z" transform="translate(-320.465 -231.194)" fill="#fff"/>
        <path id="Path_180" data-name="Path 180" d="M421.876,262.172a4.8,4.8,0,0,1-.275,1.1,2.434,2.434,0,0,1-.735.919,18.959,18.959,0,0,1-2.665,1.517,22.939,22.939,0,0,1-3.862,1.424,8.422,8.422,0,0,1-1.148.322,2.309,2.309,0,0,1-.6.092c-.183.046-.367.092-.6.138-.781.137-1.654.275-2.575.367a18.986,18.986,0,0,1-2.848.092c-.505-.045-1.012-.045-1.564-.138s-1.1-.184-1.655-.321a8.777,8.777,0,0,1-1.7-.69A7.071,7.071,0,0,1,400,265.756a5,5,0,0,1-1.242-1.838,5.5,5.5,0,0,1-.505-2.068,7.086,7.086,0,0,1,.047-1.976,12.467,12.467,0,0,1,.414-1.885,20,20,0,0,1,1.471-3.355,26.976,26.976,0,0,1,2.022-3.034,27.987,27.987,0,0,1,2.483-2.757,21.136,21.136,0,0,1,2.849-2.482c.552-.368,1.057-.735,1.654-1.057a13.575,13.575,0,0,1,1.838-.874,10.383,10.383,0,0,1,1.517-.552l.229-.045.231-.092.551-.138c.368-.092.735-.184,1.056-.275a11.362,11.362,0,0,1,2.116-.184,5.711,5.711,0,0,1,1.793.367,4.56,4.56,0,0,1,.826.367,2.891,2.891,0,0,1,.645.644,2.819,2.819,0,0,1,.643,1.609,5.212,5.212,0,0,1-.184,1.7,6.781,6.781,0,0,1-.737,1.7,8.461,8.461,0,0,1-1.056,1.563c-.229.276-.414.505-.644.782l-.275.275-.23.23a22.2,22.2,0,0,1-1.838,1.792c-.322.276-.644.552-.919.782-.323.275-.644.505-.92.736-.643.505-1.241.919-1.838,1.333a21.908,21.908,0,0,1-3.493,1.885,17.389,17.389,0,0,1-3.033.966,19.748,19.748,0,0,1-2.206.322h-1.2a4.585,4.585,0,0,0-.092.781,3.843,3.843,0,0,0,.23,1.334,1.964,1.964,0,0,0,.69.919,3.518,3.518,0,0,0,1.24.689,8.313,8.313,0,0,0,1.609.367,19.247,19.247,0,0,0,2.3.092c.734-.045,1.424-.137,2.113-.229l.964-.138c.185-.045.323-.092.506-.138l.23-.045.184-.045a14.67,14.67,0,0,0,1.655-.46,17.189,17.189,0,0,0,2.573-1.1c.735-.367,1.333-.735,1.885-1.057.505-.275.919-.551,1.286-.734a2.777,2.777,0,0,1,.966-.415c.505-.137.874.046,1.242.6A2.827,2.827,0,0,1,421.876,262.172Zm-18.062-6.481h.045a10.837,10.837,0,0,0,1.885-.322,14.872,14.872,0,0,0,2.483-.873,21.806,21.806,0,0,0,2.757-1.563,4.187,4.187,0,0,0,.736-.507c.275-.184.505-.367.781-.551.507-.368.966-.782,1.471-1.2a9.156,9.156,0,0,1,.737-.644,2.723,2.723,0,0,1,.367-.367l.229-.275a4.929,4.929,0,0,0,.644-.735c.092-.138.184-.322.275-.46a2.051,2.051,0,0,0,.138-.505.79.79,0,0,0-.092-.552.674.674,0,0,0-.414-.275.83.83,0,0,0-.459-.092h-.505a6.985,6.985,0,0,0-.965.184l-.093.046-.137.045c-.184.047-.322.092-.505.138-.276.137-.6.23-.92.367l-.092.047-.092.046c-.092,0-.137.045-.229.045-.138.092-.276.138-.414.23a6.609,6.609,0,0,0-.782.46,15.869,15.869,0,0,0-3.08,2.482,24.545,24.545,0,0,0-2.665,3.124A13.5,13.5,0,0,0,403.814,255.691Z" transform="translate(-317.306 -231.498)" fill="#fff"/>
        <path id="Path_181" data-name="Path 181" d="M442.179,265.046c-.46.275-1.011.644-1.655.964a24.14,24.14,0,0,1-2.39,1.057c-.459.184-.92.322-1.424.507-.552.137-1.1.321-1.7.412-.184.046-.322.046-.505.092h-.092l-.138.046h-.23a6.792,6.792,0,0,1-.964.092c-.644.046-1.287.046-1.976.046a17.72,17.72,0,0,1-2.068-.23,9.581,9.581,0,0,1-2.208-.505,11.912,11.912,0,0,1-2.252-.965,8.2,8.2,0,0,1-2.068-1.746,6.636,6.636,0,0,1-.827-1.149,6.817,6.817,0,0,1-.552-1.333,7.968,7.968,0,0,1-.412-2.712,11.622,11.622,0,0,1,.276-2.573,9.642,9.642,0,0,1,.322-1.241,2.254,2.254,0,0,1,.184-.6l.092-.323a.644.644,0,0,1,.092-.275,16.911,16.911,0,0,1,1.838-3.768,16.409,16.409,0,0,1,2.528-3.034,19,19,0,0,1,2.85-2.115,19.228,19.228,0,0,1,2.757-1.379c.874-.368,1.7-.644,2.437-.873.735-.184,1.378-.368,1.884-.46a11.175,11.175,0,0,1,1.286-.23,1.983,1.983,0,0,1,.552-.092,1.3,1.3,0,0,1,.964.092.936.936,0,0,1,.553.552,2.288,2.288,0,0,1,.275.782c0,.137.046.275.046.459a1.712,1.712,0,0,1-.046.46c0,.275-.046.551-.046.781-.045.23-.137.46-.184.644a1.318,1.318,0,0,1-.966.689c-.045,0-.505.047-1.241.092a19.985,19.985,0,0,0-2.987.507,15.953,15.953,0,0,0-3.953,1.563,11.234,11.234,0,0,0-2.023,1.378,14.394,14.394,0,0,0-1.746,1.93,9.382,9.382,0,0,0-1.149,1.977,11.264,11.264,0,0,0-.46,1.1.657.657,0,0,1-.092.322.645.645,0,0,1-.092.275c-.045.23-.092.414-.137.6a11.039,11.039,0,0,0-.322,2.389,5.029,5.029,0,0,0,.367,2.068,3.45,3.45,0,0,0,1.1,1.471,6.626,6.626,0,0,0,1.884,1.012,11.481,11.481,0,0,0,2.252.505c.781.092,1.608.137,2.39.184a14.147,14.147,0,0,0,1.47-.092l.185-.047H434c.093,0,.185-.045.323-.045a4.38,4.38,0,0,0,.6-.184,11.074,11.074,0,0,0,1.149-.368c.367-.138.689-.275,1.011-.414.644-.322,1.2-.6,1.655-.873s.874-.507,1.2-.735a3.673,3.673,0,0,1,1.516-.69c.368,0,.644.23.964.827a3.878,3.878,0,0,1,.276,1.471A2.168,2.168,0,0,1,442.179,265.046Z" transform="translate(-314.307 -231.569)" fill="#fff"/>
        <path id="Path_182" data-name="Path 182" d="M462.2,245.957c-.045,1.2-.184,1.93-.643,2.115a18.516,18.516,0,0,1-2.023-.138c-1.194-.092-2.8-.184-4.55-.275a17.479,17.479,0,0,0-2.206,0c0,2.115-.045,4.366,0,6.664.046,3.723.275,6.985.552,9.421.229,2.436.505,3.953.505,4.091.093.505-.185.781-.644.965a3.941,3.941,0,0,1-.781.184c-.275.045-.6.045-.874.092-1.2.045-1.976-.092-2.16-.874-.046-.092-.046-1.424-.046-3.4s.046-4.642.092-7.538c.047-2.941-.137-6.159-.321-9.376a32.391,32.391,0,0,1-3.631.093,8.218,8.218,0,0,0-3.862.735c-.734.23-.964.184-1.056-1.1-.046-.414.092-2.573.505-2.8a12.714,12.714,0,0,1,4.735-.644c1.01,0,2.067,0,3.217.046,0-.919,0-1.838.045-2.712.23-6.573-2.115-7.951.46-8.089.412,0,2.572.367,2.8,1.1.505,1.7.551,5.285.505,9.743h.414c2.252,0,4.321-.184,5.791-.321,1.516-.185,2.482-.322,2.573-.368C462.242,243.475,462.287,244.762,462.2,245.957Z" transform="translate(-311.666 -232.795)" fill="#fff"/>
        <path id="Path_183" data-name="Path 183" d="M484.145,265.867a5.215,5.215,0,0,1-.645.965,6.587,6.587,0,0,1-1.011,1.011,3.524,3.524,0,0,1-.735.507.7.7,0,0,1-.6.045,2.369,2.369,0,0,1-.828-.6,4.242,4.242,0,0,1-.781-.966,15.992,15.992,0,0,1-1.838-4.688c-.367.46-.827,1.012-1.287,1.563a13.4,13.4,0,0,1-1.149,1.2c-.414.367-.873.781-1.378,1.149a11.293,11.293,0,0,1-1.746,1.1,9.984,9.984,0,0,1-2.161.781,8,8,0,0,1-2.574.185,7.359,7.359,0,0,1-2.62-.874,7.075,7.075,0,0,1-2.16-1.7,9.954,9.954,0,0,1-1.471-2.252,12.523,12.523,0,0,1-.827-2.528,12.763,12.763,0,0,1-.321-2.619,14.707,14.707,0,0,1,.826-5.24,17.725,17.725,0,0,1,1.885-3.861c.23-.322.414-.6.6-.873.23-.276.414-.552.6-.782.459-.505.872-1.011,1.333-1.471a10.183,10.183,0,0,1,1.517-1.287,8.215,8.215,0,0,1,1.746-1.011,7.105,7.105,0,0,1,3.861-.551,9.265,9.265,0,0,1,1.7.414c.505.229.919.459,1.334.689a11.262,11.262,0,0,1,1.838,1.333,11.979,11.979,0,0,1,1.056,1.012c.275.275.414.414.414.459a1.688,1.688,0,0,1,.507.919v.276c.045.045.045.045.045.091a14.7,14.7,0,0,1,.138,1.931c.092,1.149.184,2.712.322,4.366a22.227,22.227,0,0,0,.965,4.413c.413,1.471.918,2.9,1.24,4.183a4.494,4.494,0,0,0,1.012,1.838c.184.184.367.275.505.414.184.092.321.137.412.184C484.1,265.683,484.19,265.683,484.145,265.867Zm-7.493-9.053v-.046c-.367-2.16-.781-4.137-1.148-5.562-.185-.643-.323-1.194-.461-1.608a4.3,4.3,0,0,0-.459-.6,5.279,5.279,0,0,0-.873-.873,4.634,4.634,0,0,0-1.2-.827,2.808,2.808,0,0,0-1.379-.367,5.042,5.042,0,0,0-.826.045c-.278.092-.553.184-.874.322a8.36,8.36,0,0,0-1.931,1.379c-.275.275-.6.644-.919.964-.138.184-.322.368-.46.552-.092.092-.137.184-.229.275-.046.093-.138.185-.185.277a15.423,15.423,0,0,0-1.241,2.068,11.01,11.01,0,0,0-.734,2.39,8.921,8.921,0,0,0-.23,2.482,10.724,10.724,0,0,0,.322,2.435,8.336,8.336,0,0,0,.964,2.161,5.618,5.618,0,0,0,1.471,1.471,3.9,3.9,0,0,0,1.7.551,4.076,4.076,0,0,0,1.93-.321,3.889,3.889,0,0,0,1.241-.6,5.908,5.908,0,0,0,1.012-.781c.322-.275.6-.552.873-.827.138-.138.23-.277.367-.414a.455.455,0,0,1,.184-.23l.139-.23c.919-1.194,1.515-2.16,2.022-2.9A6.013,6.013,0,0,1,476.652,256.813Z" transform="translate(-309.073 -231.517)" fill="#fff"/>
      </g>
    </g>
    <g id="Group_59" data-name="Group 59" transform="translate(335.265 124.406)">
      <path id="Path_184" data-name="Path 184" d="M314.06,306.353l4.732-31.359h9.654v44.168h-6.562V287.488l-4.795,31.674h-6.562l-5.174-31.232v31.232H299.3V274.994h9.654Z" transform="translate(-299.296 -274.49)" fill="#fff"/>
      <path id="Path_185" data-name="Path 185" d="M329.477,274.994h6.941v44.168h-6.941Z" transform="translate(-295.276 -274.49)" fill="#fff"/>
      <path id="Path_186" data-name="Path 186" d="M340.057,274.994H347v37.857h11.419v6.311h-18.36Z" transform="translate(-293.866 -274.49)" fill="#fff"/>
      <path id="Path_187" data-name="Path 187" d="M382.078,319.162c-.379-1.136-.631-1.83-.631-5.426v-6.941c0-4.1-1.388-5.615-4.543-5.615h-2.4v17.982h-6.941V274.994h10.474c7.194,0,10.285,3.344,10.285,10.158v3.471c0,4.543-1.452,7.508-4.543,8.96,3.47,1.45,4.607,4.795,4.607,9.4V313.8a13.02,13.02,0,0,0,.757,5.363ZM374.506,281.3v13.566h2.713c2.587,0,4.164-1.135,4.164-4.669v-4.354c0-3.155-1.072-4.543-3.533-4.543Z" transform="translate(-290.202 -274.49)" fill="#fff"/>
      <path id="Path_188" data-name="Path 188" d="M389.45,285.653c0-7.067,3.723-11.1,10.536-11.1s10.538,4.038,10.538,11.1V308.62c0,7.068-3.723,11.105-10.538,11.105s-10.536-4.038-10.536-11.105Zm6.94,23.409c0,3.155,1.388,4.355,3.6,4.355s3.6-1.2,3.6-4.355v-23.85c0-3.154-1.388-4.353-3.6-4.353s-3.6,1.2-3.6,4.353Z" transform="translate(-287.287 -274.549)" fill="#fff"/>
      <path id="Path_189" data-name="Path 189" d="M421.467,274.549c6.752,0,10.223,4.038,10.223,11.1v1.388h-6.562v-1.83c0-3.154-1.262-4.353-3.471-4.353s-3.47,1.2-3.47,4.353c0,9.087,13.564,10.79,13.564,23.409,0,7.068-3.532,11.105-10.347,11.105s-10.346-4.038-10.346-11.105v-2.712h6.561v3.154c0,3.155,1.388,4.291,3.6,4.291s3.6-1.137,3.6-4.291c0-9.086-13.565-10.789-13.565-23.409C411.245,278.587,414.715,274.549,421.467,274.549Z" transform="translate(-284.409 -274.549)" fill="#fff"/>
      <path id="Path_190" data-name="Path 190" d="M455.505,319.162h-7l-1.2-8.014h-8.518l-1.2,8.014h-6.373l7.067-44.168h10.158ZM439.67,305.154h6.687l-3.344-22.337Z" transform="translate(-281.724 -274.49)" fill="#fff"/>
      <path id="Path_191" data-name="Path 191" d="M470,319.162c-.378-1.136-.631-1.83-.631-5.426v-6.941c0-4.1-1.387-5.615-4.543-5.615h-2.4v17.982h-6.94V274.994h10.473c7.194,0,10.285,3.344,10.285,10.158v3.471c0,4.543-1.452,7.508-4.542,8.96,3.47,1.45,4.605,4.795,4.605,9.4V313.8a13.017,13.017,0,0,0,.757,5.363ZM462.433,281.3v13.566h2.714c2.587,0,4.163-1.135,4.163-4.669v-4.354c0-3.155-1.072-4.543-3.533-4.543Z" transform="translate(-278.49 -274.49)" fill="#fff"/>
      <path id="Path_192" data-name="Path 192" d="M477.879,274.994h6.94v44.168h-6.94Z" transform="translate(-275.508 -274.49)" fill="#fff"/>
      <path id="Path_193" data-name="Path 193" d="M487.957,285.653c0-7.067,3.723-11.1,10.538-11.1s10.538,4.038,10.538,11.1V308.62c0,7.068-3.724,11.105-10.538,11.105s-10.538-4.038-10.538-11.105Zm6.941,23.409c0,3.155,1.389,4.355,3.6,4.355s3.6-1.2,3.6-4.355v-23.85c0-3.154-1.388-4.353-3.6-4.353s-3.6,1.2-3.6,4.353Z" transform="translate(-274.166 -274.549)" fill="#fff"/>
      <path id="Path_194" data-name="Path 194" d="M519.975,274.549c6.752,0,10.22,4.038,10.22,11.1v1.388h-6.561v-1.83c0-3.154-1.261-4.353-3.47-4.353s-3.471,1.2-3.471,4.353c0,9.087,13.566,10.79,13.566,23.409,0,7.068-3.532,11.105-10.347,11.105s-10.348-4.038-10.348-11.105v-2.712h6.562v3.154c0,3.155,1.388,4.291,3.6,4.291s3.6-1.137,3.6-4.291c0-9.086-13.567-10.789-13.567-23.409C509.752,278.587,513.223,274.549,519.975,274.549Z" transform="translate(-271.288 -274.549)" fill="#fff"/>
    </g>
    <g id="Group_60" data-name="Group 60" transform="translate(348.964 157.486)">
      <path id="Path_195" data-name="Path 195" d="M341.257,348.183a6.381,6.381,0,0,1-.8,1.194,8.354,8.354,0,0,1-1.252,1.252,4.308,4.308,0,0,1-.909.624.867.867,0,0,1-.741.058,2.9,2.9,0,0,1-1.023-.739,5.236,5.236,0,0,1-.967-1.2,19.737,19.737,0,0,1-2.275-5.8c-.456.569-1.026,1.252-1.594,1.933a16.488,16.488,0,0,1-1.421,1.48c-.512.454-1.081.967-1.706,1.422a14.014,14.014,0,0,1-2.161,1.365,12.439,12.439,0,0,1-2.674.967,9.939,9.939,0,0,1-3.185.227,9.094,9.094,0,0,1-3.243-1.08,8.758,8.758,0,0,1-2.673-2.1A12.378,12.378,0,0,1,312.813,345a15.49,15.49,0,0,1-1.024-3.13,15.831,15.831,0,0,1-.4-3.242,18.21,18.21,0,0,1,1.024-6.485,21.936,21.936,0,0,1,2.332-4.779c.283-.4.512-.739.74-1.081.284-.34.511-.682.739-.967.569-.626,1.081-1.252,1.65-1.821a12.667,12.667,0,0,1,1.877-1.592,10.152,10.152,0,0,1,2.163-1.251,8.26,8.26,0,0,1,2.389-.683,8.354,8.354,0,0,1,2.389,0,11.466,11.466,0,0,1,2.105.512c.626.285,1.138.569,1.649.853a13.97,13.97,0,0,1,2.277,1.65,14.586,14.586,0,0,1,1.308,1.252c.342.34.512.511.512.569a2.075,2.075,0,0,1,.626,1.138v.34c.058.058.058.058.058.114a18.491,18.491,0,0,1,.17,2.389c.114,1.422.227,3.357.4,5.405a27.641,27.641,0,0,0,1.193,5.461c.513,1.821,1.138,3.583,1.537,5.178a5.58,5.58,0,0,0,1.251,2.274c.229.228.456.341.627.511.227.114.4.172.511.229C341.2,347.955,341.314,347.955,341.257,348.183Zm-9.274-11.207v-.057c-.454-2.673-.966-5.12-1.421-6.883-.228-.8-.4-1.48-.569-1.991a5.23,5.23,0,0,0-.569-.74,6.449,6.449,0,0,0-1.081-1.081,5.689,5.689,0,0,0-1.479-1.024,3.476,3.476,0,0,0-1.707-.454,6.091,6.091,0,0,0-1.024.058c-.341.112-.682.227-1.08.4a10.343,10.343,0,0,0-2.39,1.708c-.342.341-.74.8-1.139,1.194-.17.228-.4.454-.569.682-.112.114-.17.229-.284.341-.056.114-.17.228-.227.342a19.013,19.013,0,0,0-1.535,2.56,13.668,13.668,0,0,0-.911,2.958,11.1,11.1,0,0,0-.284,3.072,13.191,13.191,0,0,0,.4,3.015,10.333,10.333,0,0,0,1.194,2.673,6.887,6.887,0,0,0,1.821,1.821,4.83,4.83,0,0,0,2.1.682,5.063,5.063,0,0,0,2.39-.4,4.856,4.856,0,0,0,1.535-.739,7.375,7.375,0,0,0,1.252-.968c.4-.342.739-.682,1.08-1.025.171-.171.284-.341.456-.512a.569.569,0,0,1,.227-.284l.171-.283c1.138-1.48,1.878-2.674,2.5-3.584A7.549,7.549,0,0,1,331.983,336.975Z" transform="translate(-311.385 -301.591)" fill="#fff"/>
      <path id="Path_196" data-name="Path 196" d="M345.985,351.809a5.613,5.613,0,0,1-1.48,1.023,4.533,4.533,0,0,1-1.138.4,1.2,1.2,0,0,1-.909-.172,8.4,8.4,0,0,1-1.537-1.422,10.755,10.755,0,0,1-.853-1.193,6.481,6.481,0,0,1-.74-1.537,4.342,4.342,0,0,1-.284-.91c-.057-.171-.057-.341-.113-.511V347.2l-.058-.229a15.4,15.4,0,0,1-.113-1.65c-.057-1.138-.057-2.331-.057-3.583.057-2.5.228-5.234.4-8.135.227-2.844.454-5.859.682-8.931.341-5.178.511-9.843.511-13.256.058-3.412,0-5.575,0-5.8-.056-1.423,1.594-1.535,3.015-1.365,1.479.171,2.39.4,2.56,1.479,0,.342-.8,7.169-1.65,15.246-.341,3.414-.454,7.111-.569,10.866l-.113,5.631c0,1.821-.057,3.641-.171,5.348a23.22,23.22,0,0,0,.114,2.959,2.141,2.141,0,0,0,.057.626.718.718,0,0,0,.057.341c0,.058,0,.114.057.114a1.774,1.774,0,0,0,.284.682,3.984,3.984,0,0,0,.853,1.081,8.873,8.873,0,0,0,.853.74c.57.454.911.739,1.025,1.081C346.724,350.785,346.554,351.183,345.985,351.809Z" transform="translate(-307.746 -303.681)" fill="#fff"/>
      <path id="Path_197" data-name="Path 197" d="M415.51,351.471c-.113.228-.284.512-.568.967a5.51,5.51,0,0,1-1.31,1.252,4.344,4.344,0,0,1-1.023.512.892.892,0,0,1-.853-.058,3.477,3.477,0,0,1-.8-.569l-.057-.057-.057-.057c-.058,0-.058-.057-.113-.114l-.229-.227a4.139,4.139,0,0,1-.454-.569c-.113-.228-.17-.4-.284-.627l-.113-.17-.057-.228a5.609,5.609,0,0,1-.4-.854q-.427-.936-.853-2.047c-.512-1.48-1.081-3.187-1.593-5.007-.511-1.877-1.023-3.869-1.479-5.974-.512-2.1-.966-4.265-1.479-6.484-.4-1.934-.8-3.812-1.252-5.518-.454,1.706-1.023,3.527-1.65,5.518-.511,1.592-1.023,3.3-1.649,5.006-.284.91-.569,1.762-.853,2.673-.342.91-.682,1.821-1.024,2.788l-.114.341-.17.512c-.171.341-.284.682-.455,1.023A13.048,13.048,0,0,1,395.6,345.5c-.4.627-.8,1.2-1.2,1.764a9.523,9.523,0,0,1-1.365,1.308,4.788,4.788,0,0,1-1.592.853,2.344,2.344,0,0,1-.91.171,2.64,2.64,0,0,1-.967-.171,3.638,3.638,0,0,1-.8-.454c-.228-.171-.4-.4-.627-.569a8.576,8.576,0,0,1-1.023-1.593,9.064,9.064,0,0,1-.626-1.65,17.909,17.909,0,0,1-.569-1.877l-.284-.911-.228-.853-.341-1.194c-.512-1.592-.967-3.072-1.423-4.551-.8-2.447-1.592-4.664-2.276-6.6-.682,2.73-1.478,5.8-2.219,9.044a69.2,69.2,0,0,0-1.706,12.516c0,.968-1.592.8-3.071.455-1.422-.341-2.333-.626-2.39-1.366,0-.284,1.138-4.665,2.5-9.9,1.194-4.438,1.65-9.9,2.958-14.393a15.515,15.515,0,0,0,.569-5.973c-.055-.968.058-1.365,1.082-1.309a5.618,5.618,0,0,1,1.365-.512c1.478-.4,2.389-.4,3.014.968.113.17.739,2.559,1.763,6.2l1.707,6.315c.683,2.332,1.365,4.95,2.106,7.623l.682,2.56.227.853a3.092,3.092,0,0,0,.342.8.688.688,0,0,0,.284.284.444.444,0,0,0,.4.17.615.615,0,0,0,.4-.17c.113-.115.227-.171.341-.284.17-.284.342-.512.512-.8.114-.227.284-.511.4-.8.112-.228.17-.511.285-.8V340.6l.112-.227.114-.456.284-.855c.4-1.251.8-2.445,1.138-3.641.74-2.389,1.535-4.778,2.277-7.053a56.791,56.791,0,0,0,1.99-7.339c.4-1.992.569-3.47.74-4.608a5.342,5.342,0,0,1,.569-2.162c.228-.341.627-.456,1.251-.4a10.542,10.542,0,0,1,1.309-.227c1.479-.171,2.39-.114,2.731.739.057.114.228,1.593.512,3.925.284,2.275.739,5.348,1.251,8.7.512,2.845,1.309,5.86,2.162,8.875.91,3.014,1.877,5.972,2.617,8.817a22.289,22.289,0,0,0,1.308,3.527c.229.456.456.91.627,1.252a4.987,4.987,0,0,0,.341.569.2.2,0,0,1,.057.113h.058c.055.057.055.057.113.057,0,.057,0,.057.057.057a.056.056,0,0,1,.057.058h.171v.056l.113.058.171.114a1.024,1.024,0,0,1,.454.341A.966.966,0,0,1,415.51,351.471Z" transform="translate(-303.312 -302.433)" fill="#fff"/>
      <path id="Path_198" data-name="Path 198" d="M435.537,334.7c-.227,1.252-.511,2.561-.853,3.869a21.8,21.8,0,0,1-1.535,4.039,14.817,14.817,0,0,1-1.991,3.413,12.4,12.4,0,0,1-1.365,1.65,8.709,8.709,0,0,1-1.763,1.422,7.566,7.566,0,0,1-2.162,1.024,8.884,8.884,0,0,1-2.445.456,11.386,11.386,0,0,1-2.39-.228,8.294,8.294,0,0,1-1.137-.284c-.342-.115-.683-.229-1.082-.4a17.661,17.661,0,0,1-2.048-1.081A22.11,22.11,0,0,1,415,347.106a15.6,15.6,0,0,1-2.617-3.584,19.176,19.176,0,0,1-1.48-3.868,24.031,24.031,0,0,1-.682-3.869c-.171-1.592-.284-3.072-.341-4.38-.057-1.252-.114-2.447-.171-3.471-.058-2.048-.113-3.64-.113-4.778a5.271,5.271,0,0,1,.341-2.448c.284-.454.74-.569,1.536-.511.112.057.4.171.681.284.284.171.627.4.968.626a2.407,2.407,0,0,1,1.366,1.764c.114,1.308,0,3.184,0,5.518,0,1.194,0,2.447.114,3.811a28.505,28.505,0,0,0,.454,4.268,17.507,17.507,0,0,0,1.251,4.38,9.966,9.966,0,0,0,2.618,3.641,5.839,5.839,0,0,0,1.877,1.194,6.435,6.435,0,0,0,2.162.569,5.109,5.109,0,0,0,2.048-.285,6.128,6.128,0,0,0,1.821-1.251,7.837,7.837,0,0,0,1.365-1.65c.34-.569.682-1.252,1.023-1.877a22.019,22.019,0,0,0,1.251-4.04,24.9,24.9,0,0,0,.513-3.925,22.971,22.971,0,0,0,.056-3.413c-.113-1.024-.227-1.933-.34-2.788-.171-.8-.342-1.479-.455-2.048a13.072,13.072,0,0,0-.456-1.251c-.113-.342-.17-.513-.227-.513a2.012,2.012,0,0,1-.114-.967,1.364,1.364,0,0,1,.4-.74,6.009,6.009,0,0,1,1.762-1.194,3.27,3.27,0,0,1,1.764-.456,1.339,1.339,0,0,1,.739.284,3.714,3.714,0,0,1,.627.853,18.381,18.381,0,0,1,.569,2.049,28.1,28.1,0,0,1,.626,4.836A36.53,36.53,0,0,1,435.537,334.7Z" transform="translate(-298.302 -301.596)" fill="#fff"/>
      <path id="Path_199" data-name="Path 199" d="M464.055,350.11a4.965,4.965,0,0,1-2.1.4,3.271,3.271,0,0,1-1.764-.341,1.613,1.613,0,0,1-.853-1.309v-1.707c.058-1.023.058-2.447,0-4.1a43.633,43.633,0,0,0-.511-5.689,22.433,22.433,0,0,0-.74-3.129,15.611,15.611,0,0,0-1.194-3.072,13.331,13.331,0,0,0-1.593-2.389q-.512-.513-1.023-1.025a3.852,3.852,0,0,1-.569-.454c-.171-.114-.4-.284-.569-.4a12.365,12.365,0,0,0-1.2-.626,4.751,4.751,0,0,0-1.138-.284,3.378,3.378,0,0,0-1.08.057,3.471,3.471,0,0,0-.967.4,7.312,7.312,0,0,0-1.992,1.82,16.768,16.768,0,0,0-1.707,2.56c-.511.911-.968,1.934-1.422,2.9-.4.967-.8,1.991-1.194,2.958a23.375,23.375,0,0,0-1.139,3.584,23.707,23.707,0,0,0-.624,3.014,36.8,36.8,0,0,0-.4,4.153,9.646,9.646,0,0,1-.115,1.479c0,.627.058,1.024.058,1.081.057.342-.342.512-.91.569a9.471,9.471,0,0,1-2.106-.17c-1.422-.171-2.332-.4-2.5-.968,0-.057.114-.91.342-2.275.17-1.308.454-3.072.682-5.063a32.959,32.959,0,0,0,.171-5.348,43.063,43.063,0,0,1,.113-5.461,9.629,9.629,0,0,0-.626-4.381c-.171-.4-.228-.682,0-.853a1.255,1.255,0,0,1,.454-.17h.4c.17,0,.341-.058.512-.058h.739c.342.058.683.058,1.081.115a3.759,3.759,0,0,1,1.65.569,7.369,7.369,0,0,1,.456,2.561,25.872,25.872,0,0,1,1.479-2.333,15.005,15.005,0,0,1,1.991-2.333,11.444,11.444,0,0,1,1.252-1.08,9.057,9.057,0,0,1,3.357-1.535,7.3,7.3,0,0,1,1.933-.114,6.873,6.873,0,0,1,1.878.341,8.863,8.863,0,0,1,1.707.682,12.026,12.026,0,0,1,1.422.911c.454.341.91.683,1.309,1.023a21.427,21.427,0,0,1,1.933,1.991c.512.74,1.025,1.48,1.48,2.219a22.875,22.875,0,0,1,1.99,4.38,35.222,35.222,0,0,1,1.138,4.154,32.8,32.8,0,0,1,.627,3.64c.17,1.081.284,2.106.4,3.016.056.91.112,1.65.17,2.276l.17,2.162A1.51,1.51,0,0,1,464.055,350.11Z" transform="translate(-294.958 -301.356)" fill="#fff"/>
      <path id="Path_200" data-name="Path 200" d="M493.144,350.333c.228.682.4,1.081.228,1.309a.123.123,0,0,1-.113.113,1.245,1.245,0,0,1-.284.171,3.437,3.437,0,0,1-.8.4,4.042,4.042,0,0,1-1.821.341c-.8-.057-1.649-.341-1.877-.853a4.123,4.123,0,0,1-.284-.682,17.008,17.008,0,0,1-3.356,1.422,23.129,23.129,0,0,1-4.438,1.024,21.071,21.071,0,0,1-5.348,0,18.045,18.045,0,0,1-2.843-.569,20.053,20.053,0,0,1-2.9-1.081c-.228-.114-.454-.229-.683-.342s-.454-.227-.739-.4a7.373,7.373,0,0,1-1.48-.967,9.115,9.115,0,0,1-1.308-1.252,8.084,8.084,0,0,1-1.138-1.593,9.833,9.833,0,0,1-.8-1.762,11.6,11.6,0,0,1-.341-1.936,13.354,13.354,0,0,1,.228-3.7,16.68,16.68,0,0,1,1.194-3.357,19.316,19.316,0,0,1,1.65-3.015,30.336,30.336,0,0,1,3.528-4.381,30.775,30.775,0,0,1,3.811-3.47,10.957,10.957,0,0,0,.967-.739l.229-.171.283-.171.512-.341a16.142,16.142,0,0,1,2.162-1.2,11.64,11.64,0,0,1,2.219-.8,10.993,10.993,0,0,1,2.331-.4,13.488,13.488,0,0,1,2.163.113,17.107,17.107,0,0,1,1.991.456c.568.228,1.081.454,1.592.682a4.35,4.35,0,0,0,.682.4,115.631,115.631,0,0,0,0-12.631c-.17-3.357-.454-5.461-.454-5.632-.17-1.365,1.422-1.592,2.9-1.592s2.445.171,2.673,1.252c0,.17,0,1.934-.114,4.721-.113,2.731-.341,6.485-.626,10.467-.113,1.707-.228,3.527-.284,5.348l-.113,2.788-.058,1.365-.057,1.422c-.171,3.7-.228,7.4-.341,10.809a24.474,24.474,0,0,0,.341,5.349A18.929,18.929,0,0,0,493.144,350.333ZM485.92,346.8c.569-.284,1.023-.626,1.422-.853a49.5,49.5,0,0,1-.114-5.119c0-2.5.171-5.235.4-8.079.057-.683.114-1.422.227-2.162v-.456a1.523,1.523,0,0,1-.569-.341l-.341-.341a4.447,4.447,0,0,0-.739-.74,6.426,6.426,0,0,0-2.9-1.65,5.379,5.379,0,0,0-2.163-.112,8.776,8.776,0,0,0-2.673.8c-.454.228-.91.512-1.422.8a11.656,11.656,0,0,0-1.479,1.023,23.123,23.123,0,0,0-2.9,2.39,23.837,23.837,0,0,0-2.276,2.5,21.79,21.79,0,0,0-1.82,2.844,16.011,16.011,0,0,0-1.2,3.129,7.517,7.517,0,0,0-.114,2.958,4.247,4.247,0,0,0,1.081,2.333,5.333,5.333,0,0,0,1.024.91,5.941,5.941,0,0,0,.627.4c.113.057.17.114.283.171a2.947,2.947,0,0,1,.4.17,16.751,16.751,0,0,0,3.072,1.139,16.08,16.08,0,0,0,3.185.511,13.776,13.776,0,0,0,3.812-.227,16.51,16.51,0,0,0,2.958-.911A20,20,0,0,0,485.92,346.8Z" transform="translate(-291.218 -303.741)" fill="#fff"/>
      <path id="Path_201" data-name="Path 201" d="M519.922,337.686a16.985,16.985,0,0,1-.569,3.526,8.82,8.82,0,0,1-1.081,2.673,9.552,9.552,0,0,1-1.2,1.706c0,.057,0,.057-.113.171,0,.057-.058.113-.171.284a.775.775,0,0,0-.17.228c-.057.057-.114.113-.114.17l-.113.058-.057.057a7.831,7.831,0,0,1-1.194,1.193,11.876,11.876,0,0,1-1.764,1.367,14.573,14.573,0,0,1-2.5,1.251,17.233,17.233,0,0,1-3.185.8,13.533,13.533,0,0,1-3.7-.113,15.214,15.214,0,0,1-3.754-1.194,15.32,15.32,0,0,1-6.2-5.86,15.842,15.842,0,0,1-1.65-4.21,14.84,14.84,0,0,1-.341-2.219,8.286,8.286,0,0,1-.058-1.194V335.3a20.29,20.29,0,0,1,.8-4.438,17.357,17.357,0,0,1,.853-2.162,14.332,14.332,0,0,1,1.2-1.991,14.75,14.75,0,0,1,1.535-1.762,20.433,20.433,0,0,1,1.707-1.423c.626-.4,1.252-.8,1.878-1.138a1.738,1.738,0,0,0,.454-.227l.228-.115.17-.058.114-.055c.342-.115.683-.284,1.081-.4a15.743,15.743,0,0,1,3.583-.569h.853c.342,0,.627.058.911.058.569.112,1.138.17,1.707.34a11.786,11.786,0,0,1,3.072,1.138,14.494,14.494,0,0,1,2.559,1.764,15.966,15.966,0,0,1,3.529,4.436,21.888,21.888,0,0,1,1.023,2.39c0,.113.057.228.057.341h.058v.115l.055.113v.171a2.374,2.374,0,0,1,.114.626,3.908,3.908,0,0,1,.17,1.137A20.261,20.261,0,0,1,519.922,337.686Zm-4.779-3.016a10.219,10.219,0,0,0-.114-1.309c0-.113-.058-.228-.058-.341a2.475,2.475,0,0,0-.056-.284v-.171a.811.811,0,0,1-.114-.341,11.4,11.4,0,0,0-1.194-2.56,11.22,11.22,0,0,0-2.048-2.39,9.313,9.313,0,0,0-3.129-1.762c-.512-.114-1.024-.229-1.48-.284a3.45,3.45,0,0,0-.739-.058,3.19,3.19,0,0,0-.739.058,6.094,6.094,0,0,0-2.561.681c-.057,0-.115.058-.171.058l-.113.113-.341.171c-.17.113-.4.228-.569.341-.4.284-.739.569-1.081.853a8.191,8.191,0,0,0-1.592,1.878,12.15,12.15,0,0,0-1.707,4.949,13.713,13.713,0,0,0-.115,1.537,6.96,6.96,0,0,0,0,1.536,13.908,13.908,0,0,0,.569,3.242,8.15,8.15,0,0,0,1.422,2.674,9.2,9.2,0,0,0,2.333,2.1,8.623,8.623,0,0,0,2.844,1.081,7.927,7.927,0,0,0,2.843,0,7.688,7.688,0,0,0,2.447-.8,7.349,7.349,0,0,0,1.763-1.25,10.522,10.522,0,0,0,1.138-1.2l.058-.057.057-.058.057-.055c.057-.115.113-.171.171-.284a4,4,0,0,0,.454-.57,5.892,5.892,0,0,0,.911-1.309,7.568,7.568,0,0,0,.569-1.706A16.069,16.069,0,0,0,515.144,334.671Z" transform="translate(-287.328 -301.447)" fill="#fff"/>
    </g>
  </g>
</svg>
