<svg xmlns="http://www.w3.org/2000/svg" width="110.59" height="103.805" viewBox="0 0 110.59 103.805"><defs><style>.a,.n{fill:#ffffff;}.b,.o{fill:#cc9f69;}.b,.c,.d,.f,.h,.i,.k,.m,.o{stroke:#1a1818;}.b,.c,.d{stroke-width:0.3px;}.b,.d,.e,.g,.j,.l,.n,.o{fill-rule:evenodd;}.c{fill:#d6212e;}.d{fill:#004b8d;stroke-linejoin:round;}.e,.h{fill:#6b3600;}.f,.i,.k{fill:none;}.f,.h,.i,.k,.m{stroke-miterlimit:22.926;}.f,.o{stroke-width:0.2px;}.g{fill:#7d4800;}.h,.i,.k,.m{stroke-width:0.1px;}.j,.m{fill:#006f4e;}.k,.m{stroke-linecap:square;}.l{fill:#008061;}</style></defs><g transform="translate(0 0.15)"><path class="a" d="M698.647,83.726c0,2.374-.949,3.588-3.511,3.588-2.4,0-3.569-.823-3.569-3.174v-3.1a6.978,6.978,0,0,0-.137-1.717c-.18-.438-.734-.438-1.154-.438v-.3c.632,0,1.264.039,1.893.051.7-.012,1.377-.051,2.063-.051v.3c-.441,0-1.005-.019-1.175.438a8.9,8.9,0,0,0-.107,1.717v3.186c0,1.666.672,2.617,2.511,2.617,1.861,0,2.78-.939,2.78-2.67V81.331a9.21,9.21,0,0,0-.122-1.856c-.186-.538-.727-.589-1.259-.589v-.3c.532,0,1.035.039,1.564.051.5-.012,1-.051,1.5-.051v.3c-.424,0-.9,0-1.084.465a6.644,6.644,0,0,0-.194,1.98v2.394" transform="translate(-682.115 2.928)"/><path class="a" d="M699.308,79.66a1.531,1.531,0,0,0-1.465-.774v-.3c.427,0,.841.039,1.282.051.347-.012.713-.051,1.054-.051l5.668,6.685h.033V81.656a10.235,10.235,0,0,0-.129-2c-.164-.723-.525-.68-1.2-.774v-.3c.5,0,.984.039,1.482.051.479-.012.933-.051,1.425-.051v.3c-.492.051-.841,0-1.016.564a11.489,11.489,0,0,0-.169,2.272v5.591h-.393c-.31-.343-.595-.708-.888-1.082l-5.265-6.148h-.022v4.382a6.111,6.111,0,0,0,.2,1.882c.234.509.686.482,1.177.536v.3c-.519-.011-1.038-.036-1.543-.055-.491.019-1,.044-1.509.055v-.3c.541-.054,1.035-.072,1.162-.632a8.869,8.869,0,0,0,.119-1.786V79.66" transform="translate(-679.264 2.928)"/><path class="a" d="M706.676,81.051a6.275,6.275,0,0,0-.155-1.727c-.161-.438-.713-.438-1.148-.438v-.3c.643,0,1.3.039,1.936.051.686-.012,1.369-.051,2.045-.051v.3c-.45,0-.99,0-1.176.438a6.85,6.85,0,0,0-.142,1.727v3.661a6.823,6.823,0,0,0,.142,1.729c.186.443.725.443,1.176.443v.295c-.643-.011-1.318-.036-1.944-.051-.682.015-1.365.04-2.036.051v-.295c.435,0,.987,0,1.148-.443a6.251,6.251,0,0,0,.155-1.729V81.051" transform="translate(-676.427 2.928)"/><path class="a" d="M710.645,80.478c-.347-.832-.511-1.565-1.619-1.592v-.3c.614,0,1.253.039,1.893.051.657-.012,1.312-.051,1.972-.051v.3c-.384,0-1.047,0-1.047.526a16.053,16.053,0,0,0,1.033,2.978l1.356,3.295,1.29-3a18.37,18.37,0,0,0,1-3.18c0-.636-.525-.621-1.044-.621v-.3c.519,0,1.01.039,1.524.051.474-.012.945-.051,1.41-.051v.3c-1.173-.015-1.393,1.089-1.749,1.959l-2.734,6.569h-.4l-2.886-6.936" transform="translate(-675.05 2.928)"/><path class="a" d="M717.825,81.1a7.348,7.348,0,0,0-.132-1.727c-.18-.435-.734-.435-1.159-.435v-.351h6.693v1.958h-.319c-.263-1.521-.957-1.607-2.382-1.607h-.969c-.41,0-.344-.051-.344.527v3.081c1.845.078,2.122-.66,2.206-1.592h.293q-.008.869-.04,1.758c.021.529.034,1.082.04,1.612h-.293c-.2-1.36-.908-1.428-2.206-1.428v2.13a2.347,2.347,0,0,0,.242,1.3c.353.461,1.187.486,1.732.486,1.393-.025,2.3-.206,2.474-1.753h.322l-.127,2.1h-7.322v-.3c.425,0,.979,0,1.159-.431a7.431,7.431,0,0,0,.132-1.733V81.1" transform="translate(-672.221 2.928)"/><path class="a" d="M725.26,79.442c0-.142-.017-.4.156-.463a3.753,3.753,0,0,1,.88-.028,1.77,1.77,0,0,1,1.867,1.951c0,1.879-1.227,1.925-2.9,1.925V79.442m2.031,3.522c1.332-.127,2.436-.84,2.436-2.239,0-1.813-1.564-2.14-3.079-2.14-.562,0-1.151.039-1.724.051-.77-.012-1.546-.051-2.316-.051v.3c.434,0,1-.015,1.146.438a7.835,7.835,0,0,1,.124,1.727v3.661a7.793,7.793,0,0,1-.124,1.729c-.147.443-.712.443-1.146.443v.295c.676-.007,1.356-.036,2.022-.051.64.015,1.283.044,1.9.051v-.295c-.435,0-.99.022-1.14-.443a7.314,7.314,0,0,1-.132-1.729V83.167c.719,0,.665.081,1.111.58l2.246,2.681.624.752c.333-.007.663-.036,1.013-.051.4.015.8.044,1.2.051v-.295a1.736,1.736,0,0,1-1.32-.77Z" transform="translate(-669.932 2.928)"/><path class="a" d="M729.794,84.6h.316c.264,1.312,1,2.418,2.531,2.418,1.063,0,1.941-.573,1.941-1.636,0-1.173-1.064-1.634-2.054-2.024-1.228-.443-2.541-1.066-2.541-2.553a2.407,2.407,0,0,1,2.678-2.33,3.669,3.669,0,0,1,2.038.661l.3-.5h.147l.064,2.23h-.305a2.375,2.375,0,0,0-2.246-2.043,1.452,1.452,0,0,0-1.582,1.378c0,1.04.947,1.382,1.788,1.707,1.4.577,2.969,1.246,2.969,2.948s-1.64,2.507-3.218,2.507a3.712,3.712,0,0,1-2.361-.785l-.315.56h-.153V84.6" transform="translate(-667.224 2.885)"/><path class="a" d="M736.057,81.051a6.931,6.931,0,0,0-.14-1.727c-.182-.438-.726-.438-1.15-.438v-.3c.626,0,1.29.039,1.939.051.68-.012,1.341-.051,2.027-.051v.3c-.435,0-1,0-1.155.438a6.931,6.931,0,0,0-.14,1.727v3.661a6.9,6.9,0,0,0,.14,1.729c.159.443.72.443,1.155.443v.295c-.639-.011-1.3-.036-1.938-.051-.675.015-1.369.04-2.027.051v-.295c.424,0,.968,0,1.15-.443a6.9,6.9,0,0,0,.14-1.729V81.051" transform="translate(-665.35 2.928)"/><path class="a" d="M740.869,79.413c0-.088,0-.322.087-.39.129-.136.655-.085.81-.085,2.88,0,3.643,1.776,3.643,4.323,0,1.925-.449,3.57-2.807,3.57a1.768,1.768,0,0,1-1.506-.5,2.636,2.636,0,0,1-.226-1.432V79.413m-1.377,5.3a7.67,7.67,0,0,1-.125,1.728c-.159.445-.716.445-1.13.445v.295c.587-.011,1.2-.036,1.811-.051.807.015,1.62.04,2.4.051,2.78.067,4.652-1.363,4.652-4.119,0-2.818-2.166-4.542-4.994-4.473-.745,0-1.461.039-2.184.051-.559-.012-1.148-.051-1.689-.051v.3c.415,0,.971,0,1.13.465a7.676,7.676,0,0,1,.125,1.728Z" transform="translate(-664.042 2.927)"/><path class="a" d="M747.234,83.688l1.481-3.658,1.486,3.658h-2.967m-.186.417h3.328l.518,1.336a2.816,2.816,0,0,1,.267,1.012c0,.508-.657.464-1.027.486v.295c.647-.007,1.306-.036,1.941-.051.646.015,1.283.044,1.919.051v-.295a1.521,1.521,0,0,1-1.161-.476,9.649,9.649,0,0,1-.7-1.433l-2.708-6.59h-.463l-2.052,5.083c-.377.856-.748,1.66-1.124,2.489a1.283,1.283,0,0,1-1.281.927v.295c.468-.007.92-.036,1.4-.051.488.015.973.044,1.469.051v-.295c-.392-.04-1.084,0-1.084-.558a7.311,7.311,0,0,1,.646-1.955Z" transform="translate(-661.68 2.873)"/><path class="a" d="M754.954,79.413c0-.088,0-.322.08-.39.121-.136.66-.085.8-.085,2.889,0,3.645,1.776,3.645,4.323,0,1.925-.454,3.57-2.8,3.57a1.775,1.775,0,0,1-1.508-.5,2.571,2.571,0,0,1-.218-1.432V79.413m-1.38,5.3a7.612,7.612,0,0,1-.126,1.728c-.152.445-.722.445-1.154.445v.295c.615-.011,1.224-.036,1.842-.051.782.015,1.6.04,2.4.051,2.773.067,4.641-1.363,4.641-4.119,0-2.818-2.145-4.542-4.988-4.473-.731,0-1.458.039-2.184.051-.573-.012-1.14-.051-1.707-.051v.3c.432,0,1,0,1.154.465a7.618,7.618,0,0,1,.126,1.728Z" transform="translate(-658.745 2.927)"/><path class="a" d="M687,89.313c0-.644-.062-.574.934-.611a1.682,1.682,0,0,1,1.915,1.9c0,1.4-.686,1.983-2.065,1.983-.267,0-.533-.047-.783-.059V89.313m0,3.57c.041,0,.657.039.9.039,1.614,0,3.493-.454,3.493-2.338,0-1.656-1.63-2.2-3.081-2.262-.654.021-1.289.051-1.937.061-.675-.01-1.341-.04-2.024-.061v.3c.424,0,.994-.019,1.14.431a7.678,7.678,0,0,1,.128,1.753v3.638a7.532,7.532,0,0,1-.128,1.732c-.146.439-.716.439-1.14.439v.315c.683-.019,1.31-.05,1.97-.066.7.017,1.4.047,2.1.066v-.315c-.463-.033-1.1.061-1.283-.439A7.16,7.16,0,0,1,687,94.446Z" transform="translate(-684.349 6.597)"/><path class="a" d="M691.689,93.429l1.506-3.676,1.469,3.676h-2.976m-.175.4h3.32l.521,1.338a2.875,2.875,0,0,1,.277,1.013c0,.505-.665.479-1.038.486v.315c.655-.019,1.293-.05,1.955-.066.635.017,1.264.047,1.914.066v-.315a1.534,1.534,0,0,1-1.166-.464,10.315,10.315,0,0,1-.7-1.426l-2.719-6.6h-.455l-2.052,5.1c-.381.826-.75,1.658-1.114,2.482a1.305,1.305,0,0,1-1.312.9v.315c.49-.019.936-.05,1.4-.066.5.017,1,.047,1.49.066v-.315c-.4-.033-1.081,0-1.081-.541a7.548,7.548,0,0,1,.637-1.97Z" transform="translate(-682.617 6.544)"/><path class="a" d="M697.8,89.4a1.5,1.5,0,0,0-1.459-.779v-.3c.438.021.852.051,1.278.061.354-.01.712-.04,1.07-.061L704.355,95h.014V91.41a12.093,12.093,0,0,0-.11-2.006c-.161-.735-.522-.665-1.2-.779v-.3c.5.021.986.051,1.484.061.471-.01.92-.04,1.427-.061v.3c-.508.044-.847,0-1.019.574a12.084,12.084,0,0,0-.175,2.265v5.594h-.412c-.274-.351-.575-.709-.874-1.077l-5.251-6.164h-.033V94.2a6.006,6.006,0,0,0,.2,1.895c.231.494.677.476,1.175.527v.315c-.516-.019-1.033-.05-1.541-.066-.494.017-.993.047-1.5.066v-.315c.53-.051,1.03-.072,1.151-.626a10.144,10.144,0,0,0,.1-1.8V89.4" transform="translate(-679.831 6.597)"/><path class="a" d="M706.061,93.429l1.5-3.676,1.464,3.676h-2.959m-.175.4H709.2l.529,1.338A2.835,2.835,0,0,1,710,96.184c0,.505-.657.479-1.035.486v.315c.651-.019,1.3-.05,1.95-.066.632.017,1.278.047,1.917.066v-.315a1.493,1.493,0,0,1-1.152-.464,10.35,10.35,0,0,1-.71-1.426l-2.719-6.6h-.454l-2.057,5.1c-.368.826-.737,1.658-1.115,2.482a1.277,1.277,0,0,1-1.292.9v.315c.479-.019.934-.05,1.388-.066.5.017,1,.047,1.487.066v-.315c-.4-.033-1.081,0-1.081-.541a6.831,6.831,0,0,1,.646-1.97Z" transform="translate(-677.197 6.544)"/><path class="a" d="M720.733,95.219c0,1.231.039,1.3,1.337,1.4v.315c-.705-.019-1.36-.05-2.014-.066-.68.017-1.361.047-2.038.066v-.315c1.291-.1,1.336-.168,1.336-1.4V89.547h-.031L717.8,93.179c-.563,1.245-1.117,2.5-1.692,3.753h-.129l-3.27-7.385h-.029V95.03c0,1.011.209,1.537,1.3,1.588v.315c-.511-.019-1-.05-1.5-.066-.471.017-.948.047-1.417.066v-.315c1.019,0,1.2-.577,1.2-1.173V89.912a2.934,2.934,0,0,0-.107-.856c-.18-.431-.731-.431-1.167-.431v-.3c.476.021.9.051,1.36.061.423-.01.826-.04,1.252-.061l2.946,6.656,2.88-6.656c.414.021.852.051,1.269.061.424-.01.852-.04,1.337-.061v.3c-.439,0-.969.017-1.173.454a4.585,4.585,0,0,0-.132,1.432v4.707" transform="translate(-674.309 6.597)"/><path class="a" d="M721.034,90.851a7.574,7.574,0,0,0-.127-1.724c-.18-.458-.734-.458-1.162-.458v-.347h6.686v1.973h-.307c-.271-1.537-.959-1.626-2.386-1.626h-.965c-.429,0-.35-.044-.35.547v3.069c1.848.077,2.112-.671,2.192-1.59h.315c-.019.581-.033,1.169-.057,1.749.024.541.037,1.09.057,1.629h-.315c-.186-1.371-.9-1.433-2.192-1.433v2.133a2.518,2.518,0,0,0,.231,1.312,2.3,2.3,0,0,0,1.738.463c1.4-.025,2.3-.189,2.471-1.732h.333l-.129,2.089h-7.322v-.318c.428,0,.982,0,1.162-.431a7.659,7.659,0,0,0,.127-1.729V90.851" transform="translate(-671.011 6.597)"/><path class="a" d="M728.456,89.188c0-.147-.006-.391.157-.468a5.032,5.032,0,0,1,.884-.018,1.784,1.784,0,0,1,1.887,1.95c0,1.872-1.218,1.915-2.928,1.915V89.188M730.5,92.7c1.341-.117,2.43-.837,2.43-2.232,0-1.812-1.541-2.146-3.068-2.146-.581.021-1.167.051-1.729.061-.764-.01-1.543-.04-2.307-.061v.3c.428,0,.992-.019,1.143.431a7.617,7.617,0,0,1,.129,1.732v3.658a7.409,7.409,0,0,1-.129,1.732c-.15.439-.715.439-1.143.439v.315c.654-.019,1.337-.05,2.017-.066.643.017,1.278.047,1.9.066v-.315c-.435,0-.984.019-1.137-.439a6.719,6.719,0,0,1-.143-1.732V92.922c.727,0,.68.081,1.116.581l2.246,2.675.621.755c.341-.019.677-.05,1.013-.066.4.017.8.047,1.213.066v-.315a1.76,1.76,0,0,1-1.323-.75Z" transform="translate(-668.721 6.597)"/><path class="a" d="M734.365,90.788a7.181,7.181,0,0,0-.137-1.732c-.18-.431-.737-.431-1.157-.431v-.3c.651.021,1.294.051,1.926.061.7-.01,1.366-.04,2.043-.061v.3c-.435,0-.99,0-1.162.431a7.547,7.547,0,0,0-.131,1.732v3.658a7.394,7.394,0,0,0,.131,1.732c.172.439.727.439,1.162.439v.315c-.635-.019-1.293-.05-1.944-.066-.672.017-1.357.047-2.025.066v-.315c.42,0,.976,0,1.157-.439a7.036,7.036,0,0,0,.137-1.732V90.788" transform="translate(-665.989 6.597)"/><path class="a" d="M744.378,88.423h.2l.121,2.539h-.318a2.762,2.762,0,0,0-2.839-2.449c-2.423,0-3.146,2.291-3.146,4.249s.79,4.031,3.18,4.031c1.877,0,2.571-1.286,2.969-2.835h.231v2.835h-.158l-.325-.672a4.584,4.584,0,0,1-2.99.978c-2.733,0-4.58-1.7-4.58-4.337a4.481,4.481,0,0,1,4.714-4.546,4.639,4.639,0,0,1,2.729.81l.215-.6" transform="translate(-664.614 6.557)"/><path class="a" d="M746.057,93.429l1.5-3.676,1.475,3.676h-2.974m-.175.4H749.2l.529,1.338a3.074,3.074,0,0,1,.262,1.013c0,.505-.664.479-1.03.486v.315c.643-.019,1.309-.05,1.958-.066.632.017,1.278.047,1.911.066v-.315a1.529,1.529,0,0,1-1.163-.464,11.214,11.214,0,0,1-.694-1.426l-2.728-6.6H747.8l-2.071,5.1c-.376.826-.737,1.658-1.112,2.482a1.268,1.268,0,0,1-1.289.9v.315c.479-.019.92-.05,1.391-.066.508.017,1,.047,1.479.066v-.315c-.406-.033-1.073,0-1.073-.541a6.968,6.968,0,0,1,.638-1.97Z" transform="translate(-662.124 6.544)"/><path class="a" d="M752.254,89.4a1.522,1.522,0,0,0-1.47-.779v-.3c.438.021.849.051,1.288.061.344-.01.7-.04,1.041-.061L758.793,95h.037V91.41A10.09,10.09,0,0,0,758.7,89.4c-.153-.735-.516-.665-1.188-.779v-.3c.486.021.973.051,1.478.061.466-.01.931-.04,1.433-.061v.3c-.5.044-.858,0-1.03.574a12.092,12.092,0,0,0-.172,2.265v5.594h-.39c-.285-.351-.6-.709-.891-1.077l-5.262-6.164h-.032V94.2a5.393,5.393,0,0,0,.223,1.895c.215.494.664.476,1.159.527v.315c-.51-.019-1.038-.05-1.539-.066-.511.017-1,.047-1.5.066v-.315c.529-.051,1.039-.072,1.155-.626a9.656,9.656,0,0,0,.11-1.8V89.4" transform="translate(-659.314 6.597)"/><path class="a" d="M760.5,93.429l1.5-3.676,1.482,3.676H760.5m-.169.4h3.329l.516,1.338a3.161,3.161,0,0,1,.274,1.013c0,.505-.657.479-1.049.486v.315c.646-.019,1.312-.05,1.963-.066.626.017,1.264.047,1.907.066v-.315a1.572,1.572,0,0,1-1.165-.464,14.646,14.646,0,0,1-.7-1.426l-2.7-6.6h-.467l-2.058,5.1c-.376.826-.745,1.658-1.118,2.482a1.28,1.28,0,0,1-1.286.9v.315c.465-.019.925-.05,1.391-.066.508.017.99.047,1.476.066v-.315c-.4-.033-1.084,0-1.084-.541a7.21,7.21,0,0,1,.657-1.97Z" transform="translate(-656.68 6.544)"/><path class="b" d="M702.409,19.382V64.871h0a30.314,30.314,0,0,0,60.629,0h0V19.382H702.409" transform="translate(-677.543 -19.382)"/><rect class="c" width="30.312" height="22.744" transform="translate(24.979 0.097)"/><path class="d" d="M709.612,38.756h-7.121V48.4L732.8,91.69V71.873L709.612,38.756" transform="translate(-677.512 -15.915)"/><path class="e" d="M741.232,39.8a7.677,7.677,0,0,0-1.183.408c-.2.087-.389.18-.592.288a6.392,6.392,0,0,0-.6.359,5.471,5.471,0,0,0-.556-.35,6.817,6.817,0,0,0-3.427-.858c-.521,0-.886-.01-1.231,0-.07,0-.161-.379-.161-.379l-.353.032a.568.568,0,0,1-.059.463,3.639,3.639,0,0,0-.759.169,9.639,9.639,0,0,0-2.426,1.144c-.807.566-1.619,1.283-1.955,1.521a1.333,1.333,0,0,1-.844.164l-.045.31.468.029a6.14,6.14,0,0,0-.848,1.546,3.223,3.223,0,0,0-.153,1.692s.237.139.361.054l.4-.289a1.741,1.741,0,0,1-.132-1.057,3.843,3.843,0,0,1,.906-1.593s-.01.235-.01.432a1.861,1.861,0,0,0,.046.379l.333-.19a1.6,1.6,0,0,1,.613-1.426c.511-.505,1.006-.527,1.146-.432a.739.739,0,0,1,.2.383s.023.186.177.14c.26-.073.1-.394.1-.394a1.413,1.413,0,0,1,.132-.794,5.789,5.789,0,0,1,1.952-.812,9.128,9.128,0,0,1,2.769-.14,4.874,4.874,0,0,1,2,.669c.2.1.465.33.629.245.081-.041.722-.657.722-.657a4.389,4.389,0,0,0-.815.728,7.207,7.207,0,0,0-.863,1.143,4.48,4.48,0,0,0-.5,1.415s.026.388-.1.388a1.857,1.857,0,0,1-.4-1.552,4.921,4.921,0,0,1,.8-1.966s-.329-.15-.493-.209a4.18,4.18,0,0,0-.683-.167,5.614,5.614,0,0,0-.815,2.1,5.728,5.728,0,0,0,.161,1.884,2.972,2.972,0,0,0,.925,1.658,2.579,2.579,0,0,1,.716,2.621,9.294,9.294,0,0,0-.282,2.52c.048,1.336.519,1.711.519,2.426s-.146,14.925-.519,15.733-1.929,1.469-2.1,1.57a11.836,11.836,0,0,0-1.745,1.129,10.019,10.019,0,0,1-2.192.9,4.941,4.941,0,0,0-3.58,3.391A4.35,4.35,0,0,1,729.416,75a7.957,7.957,0,0,0,3.109-1.176c.124-.145.194-.056.194-.074,0-.1-.194.074-.194.074s-.024.277-1.541,1.23a7.388,7.388,0,0,1-2.21,1.307c-1.711.732-2,3.186-2,3.186a4.5,4.5,0,0,1,1.988-2.328s.984-.244,1.363-.3c0,0-1.156.24-1.363.3a3.913,3.913,0,0,0-.282.878,8.447,8.447,0,0,0-.062.9,7.771,7.771,0,0,0,.8,3.165,11.511,11.511,0,0,1,0-2.434c.169-.715.429-1.02.7-1.838a7.273,7.273,0,0,0,.2-.976,2.7,2.7,0,0,0,.782-.374,2.761,2.761,0,0,1,.622-.4c.26-.116,1.643-.852,1.882-.953a13.525,13.525,0,0,1-1.882.953,3.615,3.615,0,0,0-.049,1.654,5.212,5.212,0,0,0,.643,1.8c.228.456.654,1.614.654,1.614a15.564,15.564,0,0,1-.143-3.015,8.352,8.352,0,0,1,.778-3,16.1,16.1,0,0,0,1.659-1.114l1.32-.671c.134-.07.344,1.23.319.917-.07-.658.019.867-.277,1.4A5.119,5.119,0,0,0,736.475,79a3.126,3.126,0,0,1,.194,2.635,6.1,6.1,0,0,0,.788-3.3,2.563,2.563,0,0,1,.834-2.09s.626-.57.308-2.158a4.042,4.042,0,0,1,.146-1.276.453.453,0,0,1,.827.029,2.333,2.333,0,0,1,.138,1.632,1.382,1.382,0,0,0,.39,1.391,6.107,6.107,0,0,1,1.046,4.329,3.638,3.638,0,0,0,.6-1.638c.094-1.026.22-1.55.22-2.252a1.771,1.771,0,0,0-.676-1.6s-.351-.694-.1-1.07a1.6,1.6,0,0,1,.739-.457c.786-.167.713.94.7,1.3-.056,1.3.657,1.415.753,2.1a2.986,2.986,0,0,1-.166,1.316,3.463,3.463,0,0,0,.759-2.363c-.02-1.543-.307-1.875.121-2.281.5-.476,1.045.235,1.927.332.742.084,1.4.285,1.928-.187a3.776,3.776,0,0,0,.945-1.57,3.306,3.306,0,0,1-1.281.211c-.64-.047-2.071-.549-2.684-.642a9.8,9.8,0,0,1-1.67-.31A4.759,4.759,0,0,1,741.3,69.6l-.018-.036c-.493-.746-.522-15.017-.522-15.73s.475-1.093.522-2.426a9.458,9.458,0,0,0-.285-2.517,8.081,8.081,0,0,1,.717-2.621l.016-.04a3.142,3.142,0,0,0,.875-1.6,5.516,5.516,0,0,0,.169-1.884,5.49,5.49,0,0,0-.854-2.112,3.949,3.949,0,0,0-.6.117,3.16,3.16,0,0,0-.621.234,4.705,4.705,0,0,1,.878,2c.07.931-.368,1.662-.4,1.546-.007-.034-.094-.377-.094-.377a4.7,4.7,0,0,0-.5-1.476,7.093,7.093,0,0,0-.852-1.136s-.118.029-.474.388a1.623,1.623,0,0,0-.333.392,4.876,4.876,0,0,1,.872,2.308c-.019.5-.272,1.384-.9,1.165l-.029-.011a1.233,1.233,0,0,1-.9-1.163,3.642,3.642,0,0,1,.915-2.244l.012-.015a3.964,3.964,0,0,1,.858-.85l.525-.321a4.71,4.71,0,0,1,1.982-.6,8.807,8.807,0,0,1,2.766.14,5.638,5.638,0,0,1,1.955.811,1.408,1.408,0,0,1,.135.79s-.164.318.1.4c.151.044.183-.136.183-.136a.741.741,0,0,1,.2-.386c.139-.1.635-.074,1.14.43a1.62,1.62,0,0,1,.621,1.425l.328.193a1.641,1.641,0,0,0,.054-.383c0-.2.054-.147.054-.147a5.412,5.412,0,0,1,.872,1.3,2.411,2.411,0,0,1-.1,1.18.5.5,0,0,0,.564.184,2.084,2.084,0,0,0-.094-1.849,5.092,5.092,0,0,0-1.015-1.472l.547.1-.03-.257a2.162,2.162,0,0,1-.7-.322c-.334-.233-1.143-.95-1.952-1.52a9.552,9.552,0,0,0-2.429-1.144,3.515,3.515,0,0,0-.761-.167.584.584,0,0,1-.056-.461l-.35-.033s-.091.384-.164.377c-.339-.01-.709.007-1.228.007a8.348,8.348,0,0,0-1.652.156l-.051-.034c-.113-.088-.26-.194-.384-.275-.2-.134-.538-.317-.85-.481a12.088,12.088,0,0,0,1.629-.91,7.07,7.07,0,0,0,2.536-2.316,17.612,17.612,0,0,0,2-5,.423.423,0,0,1,.29-.336.513.513,0,0,1,.375.052l.147-.347s-.522.158-.522-.176.047-1.476.474-1.666a1.067,1.067,0,0,1,.713-.1l.1-.33s-.525.143-.713,0-.145-.1.044-.381a3.091,3.091,0,0,1,.443-.593,3.093,3.093,0,0,0,.479-.965l-.391-.14a5.947,5.947,0,0,1-.624,1.129c-.242.242-.242.143-.242.143s-.094.193-.33-.33-.475-.43-.475-.43l-.191.24a1,1,0,0,1,.522.756,55.4,55.4,0,0,1-2.149,6.585,6.081,6.081,0,0,1-1.307,2.167l-.158-.562-.3.04-.032.907c-.005.237-.516.559-1.611,1.128,0,0-.851.442-1.658.859l-.119.056c.365-.183-1.117-.392-1.8-.865-1.01-.713-1.583-.928-1.583-1.168l.007-.9-.336-.047-.164.584a7.436,7.436,0,0,1-1.3-2.186,51.371,51.371,0,0,1-2.152-6.583,1.009,1.009,0,0,1,.525-.763l-.2-.238a1.422,1.422,0,0,0-.468.43c-.172.336-.275.359-.275.359a.4.4,0,0,1-.3-.171,7.5,7.5,0,0,1-.581-1.147l-.383.143a2.689,2.689,0,0,0,.364.933,7.818,7.818,0,0,0,.5.643c.169.178.167.359.047.379a2.684,2.684,0,0,1-.71,0l-.035.285a1.077,1.077,0,0,1,.712.1c.428.191.528.91.6,1.238.123.512-.558.687-.558.687l.1.38a1.822,1.822,0,0,0,.352-.1c.427-.139.6.38.6.38a14.693,14.693,0,0,0,1.791,4.928,9.462,9.462,0,0,0,2.54,2.317,6.984,6.984,0,0,0,1.447.785l.217.09a11.2,11.2,0,0,0,1.565-.767c-.153.069-1.338.648-1.565.767a9.01,9.01,0,0,0-.849.447,5.611,5.611,0,0,0-.508.368s.271.065.624.189c.4.149.617.242.617.242a4.693,4.693,0,0,1,.766-.485,2.64,2.64,0,0,0,.4-.208c.113-.08,1.727-.858,1.055-.526l-1.055.526c-.128.069.2.121.293.169.218.109.835.509.835.509A10.259,10.259,0,0,1,741.232,39.8Z" transform="translate(-668.481 -16.966)"/><path class="f" d="M741.232,39.8a7.677,7.677,0,0,0-1.183.408c-.2.087-.389.18-.592.288a6.392,6.392,0,0,0-.6.359,5.471,5.471,0,0,0-.556-.35,6.817,6.817,0,0,0-3.427-.858c-.521,0-.886-.01-1.231,0-.07,0-.161-.379-.161-.379l-.353.032a.568.568,0,0,1-.059.463,3.639,3.639,0,0,0-.759.169,9.639,9.639,0,0,0-2.426,1.144c-.807.566-1.619,1.283-1.955,1.521a1.333,1.333,0,0,1-.844.164l-.045.31.468.029a6.14,6.14,0,0,0-.848,1.546,3.223,3.223,0,0,0-.153,1.692s.237.139.361.054l.4-.289a1.741,1.741,0,0,1-.132-1.057,3.843,3.843,0,0,1,.906-1.593s-.01.235-.01.432a1.861,1.861,0,0,0,.046.379l.333-.19a1.6,1.6,0,0,1,.613-1.426c.511-.505,1.006-.527,1.146-.432a.739.739,0,0,1,.2.383s.023.186.177.14c.26-.073.1-.394.1-.394a1.413,1.413,0,0,1,.132-.794,5.789,5.789,0,0,1,1.952-.812,9.128,9.128,0,0,1,2.769-.14,5.42,5.42,0,0,1,2,.669c.278.189.589.252.468.392-.244.279-.626.844-.8,1.067a3.97,3.97,0,0,0-.5,1.5s-.009.277-.1.308c-.113.023-.471-.624-.4-1.552a4.921,4.921,0,0,1,.8-1.966s-.329-.15-.493-.209a4.18,4.18,0,0,0-.683-.167,5.614,5.614,0,0,0-.815,2.1,5.728,5.728,0,0,0,.161,1.884,2.972,2.972,0,0,0,.925,1.658,2.579,2.579,0,0,1,.716,2.621,9.294,9.294,0,0,0-.282,2.52c.048,1.336.519,1.711.519,2.426s-.146,14.925-.519,15.733-1.929,1.469-2.1,1.57a11.836,11.836,0,0,0-1.745,1.129,10.019,10.019,0,0,1-2.192.9,4.941,4.941,0,0,0-3.58,3.391A4.35,4.35,0,0,1,729.416,75a7.957,7.957,0,0,0,3.109-1.176c.124-.145.194-.056.194-.074,0-.1-.194.074-.194.074s-.024.277-1.541,1.23a7.388,7.388,0,0,1-2.21,1.307c-1.711.732-2,3.186-2,3.186a4.5,4.5,0,0,1,1.988-2.328s.984-.244,1.363-.3c0,0-1.156.24-1.363.3a3.913,3.913,0,0,0-.282.878,8.447,8.447,0,0,0-.062.9,7.771,7.771,0,0,0,.8,3.165,11.511,11.511,0,0,1,0-2.434c.169-.715.429-1.02.7-1.838a7.273,7.273,0,0,0,.2-.976,2.7,2.7,0,0,0,.782-.374,2.761,2.761,0,0,1,.622-.4c.26-.116,1.643-.852,1.882-.953a13.525,13.525,0,0,1-1.882.953,3.615,3.615,0,0,0-.049,1.654,5.212,5.212,0,0,0,.643,1.8c.228.456.654,1.614.654,1.614a15.564,15.564,0,0,1-.143-3.015,8.352,8.352,0,0,1,.778-3,16.1,16.1,0,0,0,1.659-1.114l1.32-.671c.134-.07.344,1.23.319.917-.07-.658.019.867-.277,1.4A5.119,5.119,0,0,0,736.475,79a3.126,3.126,0,0,1,.194,2.635,6.1,6.1,0,0,0,.788-3.3,2.563,2.563,0,0,1,.834-2.09s.626-.57.308-2.158a4.042,4.042,0,0,1,.146-1.276.453.453,0,0,1,.827.029,2.333,2.333,0,0,1,.138,1.632,1.382,1.382,0,0,0,.39,1.391,6.107,6.107,0,0,1,1.046,4.329,3.638,3.638,0,0,0,.6-1.638c.094-1.026.22-1.55.22-2.252a1.771,1.771,0,0,0-.676-1.6s-.351-.694-.1-1.07a1.6,1.6,0,0,1,.739-.457c.786-.167.713.94.7,1.3-.056,1.3.657,1.415.753,2.1a2.986,2.986,0,0,1-.166,1.316,3.463,3.463,0,0,0,.759-2.363c-.02-1.543-.307-1.875.121-2.281.5-.476,1.045.235,1.927.332.742.084,1.4.285,1.928-.187a3.776,3.776,0,0,0,.945-1.57,3.306,3.306,0,0,1-1.281.211c-.64-.047-2.071-.549-2.684-.642a9.8,9.8,0,0,1-1.67-.31A4.759,4.759,0,0,1,741.3,69.6l-.018-.036c-.493-.746-.522-15.017-.522-15.73s.475-1.093.522-2.426a9.458,9.458,0,0,0-.285-2.517,8.081,8.081,0,0,1,.717-2.621l.016-.04a3.142,3.142,0,0,0,.875-1.6,5.516,5.516,0,0,0,.169-1.884,5.49,5.49,0,0,0-.854-2.112,3.949,3.949,0,0,0-.6.117,3.16,3.16,0,0,0-.621.234,4.705,4.705,0,0,1,.878,2c.07.931-.365,1.66-.4,1.546-.021-.061-.094-.377-.094-.377a4.7,4.7,0,0,0-.5-1.476,7.093,7.093,0,0,0-.852-1.136s-.118.029-.474.388a1.623,1.623,0,0,0-.333.392,4.876,4.876,0,0,1,.872,2.308c-.019.5-.272,1.384-.9,1.165l-.029-.011a1.233,1.233,0,0,1-.9-1.163,3.642,3.642,0,0,1,.915-2.244l.012-.015a3.964,3.964,0,0,1,.858-.85l.525-.321a4.71,4.71,0,0,1,1.982-.6,8.807,8.807,0,0,1,2.766.14,5.638,5.638,0,0,1,1.955.811,1.408,1.408,0,0,1,.135.79s-.164.318.1.4c.151.044.183-.136.183-.136a.741.741,0,0,1,.2-.386c.139-.1.635-.074,1.14.43a1.62,1.62,0,0,1,.621,1.425l.328.193a1.641,1.641,0,0,0,.054-.383c0-.2.054-.147.054-.147a5.412,5.412,0,0,1,.872,1.3,2.411,2.411,0,0,1-.1,1.18.5.5,0,0,0,.564.184,2.084,2.084,0,0,0-.094-1.849,5.092,5.092,0,0,0-1.015-1.472l.547.1-.03-.257a2.162,2.162,0,0,1-.7-.322c-.334-.233-1.143-.95-1.952-1.52a9.552,9.552,0,0,0-2.429-1.144,3.515,3.515,0,0,0-.761-.167.584.584,0,0,1-.056-.461l-.35-.033s-.091.384-.164.377c-.339-.01-.709.007-1.228.007a14.289,14.289,0,0,0-1.652.156l-.051-.034c-.113-.088-.26-.194-.384-.275-.2-.134-.538-.317-.85-.481a12.088,12.088,0,0,0,1.629-.91,7.07,7.07,0,0,0,2.536-2.316,17.612,17.612,0,0,0,2-5,.423.423,0,0,1,.29-.336.513.513,0,0,1,.375.052l.147-.347s-.522.158-.522-.176.047-1.476.474-1.666a1.067,1.067,0,0,1,.713-.1l.1-.33s-.525.143-.713,0-.145-.1.044-.381a3.091,3.091,0,0,1,.443-.593,3.093,3.093,0,0,0,.479-.965l-.391-.14a5.947,5.947,0,0,1-.624,1.129l-.242.242s-.094.094-.33-.43-.475-.43-.475-.43l-.191.24a1,1,0,0,1,.522.756,55.4,55.4,0,0,1-2.149,6.585,6.081,6.081,0,0,1-1.307,2.167l-.158-.562-.3.04-.032.907c-.005.237-.516.559-1.611,1.128,0,0-.434.229-1.238.642l-.094.054c-.493.249-1.638-.329-2.133-.578-.073-.034-1.694-.994-1.694-1.234l.007-.9-.336-.047-.164.584a7.436,7.436,0,0,1-1.3-2.186,51.371,51.371,0,0,1-2.152-6.583,1.009,1.009,0,0,1,.525-.763l-.2-.238a1.422,1.422,0,0,0-.468.43c-.172.336-.275.359-.275.359a.4.4,0,0,1-.3-.171,7.5,7.5,0,0,1-.581-1.147l-.383.143a2.689,2.689,0,0,0,.364.933,7.818,7.818,0,0,0,.5.643c.169.178.167.359.047.379a2.684,2.684,0,0,1-.71,0l-.035.285a1.077,1.077,0,0,1,.712.1c.428.191.528.91.6,1.238.123.512-.558.687-.558.687l.1.38a1.822,1.822,0,0,0,.352-.1c.427-.139.6.38.6.38a14.693,14.693,0,0,0,1.791,4.928,8.953,8.953,0,0,0,2.54,2.317,6.984,6.984,0,0,0,1.447.785l.217.09,1.429-.7c-.152.065-1.2.58-1.429.7a9.01,9.01,0,0,0-.849.447,5.611,5.611,0,0,0-.508.368s.271.065.624.189c.4.149.617.242.617.242a4.693,4.693,0,0,1,.766-.485,2.64,2.64,0,0,0,.4-.208c.113-.08,1.727-.858,1.055-.526l-1.055.526c-.128.069.07.014.293.169a8.56,8.56,0,0,0,.835.509A10.259,10.259,0,0,1,741.232,39.8Z" transform="translate(-668.481 -16.966)"/><path class="g" d="M730.651,26.585a.5.5,0,0,0,.7-.078c.189-.215.261-.646.059-.816s-.6-.025-.785.2A.494.494,0,0,0,730.651,26.585Z" transform="translate(-666.961 -17.033)"/><path class="h" d="M730.651,26.585a.5.5,0,0,0,.7-.078c.189-.215.261-.646.059-.816s-.6-.025-.785.2A.494.494,0,0,0,730.651,26.585Z" transform="translate(-666.961 -17.033)"/><path class="g" d="M730.538,26.679a.574.574,0,0,0,.8-.023c.087-.09-.255-.113-.505-.324s-.3-.531-.384-.435A.522.522,0,0,0,730.538,26.679Z" transform="translate(-667.028 -16.934)"/><path class="h" d="M730.538,26.679a.574.574,0,0,0,.8-.023c.087-.09-.255-.113-.505-.324s-.3-.531-.384-.435A.522.522,0,0,0,730.538,26.679Z" transform="translate(-667.028 -16.934)"/><path class="g" d="M729.374,27.466a.5.5,0,0,0-.511-.492c-.285,0-.665.211-.665.474s.366.478.648.489A.506.506,0,0,0,729.374,27.466Z" transform="translate(-667.825 -16.521)"/><path class="h" d="M729.374,27.466a.5.5,0,0,0-.511-.492c-.285,0-.665.211-.665.474s.366.478.648.489A.506.506,0,0,0,729.374,27.466Z" transform="translate(-667.825 -16.521)"/><path class="g" d="M729.4,27.506a.575.575,0,0,0-.527-.607c-.125-.007.073.278.065.6s-.207.569-.08.574A.52.52,0,0,0,729.4,27.506Z" transform="translate(-667.593 -16.549)"/><path class="h" d="M729.4,27.506a.575.575,0,0,0-.527-.607c-.125-.007.073.278.065.6s-.207.569-.08.574A.52.52,0,0,0,729.4,27.506Z" transform="translate(-667.593 -16.549)"/><path class="g" d="M733.1,33.089a.5.5,0,0,0,.559-.43c.047-.282-.113-.688-.37-.732s-.524.292-.573.574A.5.5,0,0,0,733.1,33.089Z" transform="translate(-666.126 -14.656)"/><path class="h" d="M733.1,33.089a.5.5,0,0,0,.559-.43c.047-.282-.113-.688-.37-.732s-.524.292-.573.574A.5.5,0,0,0,733.1,33.089Z" transform="translate(-666.126 -14.656)"/><path class="g" d="M733.081,33.14a.586.586,0,0,0,.683-.431c.028-.125-.285.025-.6-.032s-.536-.289-.561-.169A.533.533,0,0,0,733.081,33.14Z" transform="translate(-666.168 -14.448)"/><path class="h" d="M733.081,33.14a.586.586,0,0,0,.683-.431c.028-.125-.285.025-.6-.032s-.536-.289-.561-.169A.533.533,0,0,0,733.081,33.14Z" transform="translate(-666.168 -14.448)"/><path class="g" d="M731.583,35.751a.486.486,0,0,0,.414-.562c-.023-.285-.288-.631-.551-.6s-.431.421-.4.7A.493.493,0,0,0,731.583,35.751Z" transform="translate(-666.752 -13.652)"/><path class="h" d="M731.583,35.751a.486.486,0,0,0,.414-.562c-.023-.285-.288-.631-.551-.6s-.431.421-.4.7A.493.493,0,0,0,731.583,35.751Z" transform="translate(-666.752 -13.652)"/><path class="g" d="M731.621,35.8a.575.575,0,0,0,.536-.6c-.008-.125-.264.109-.586.142s-.592-.142-.581-.015A.528.528,0,0,0,731.621,35.8Z" transform="translate(-666.774 -13.435)"/><path class="h" d="M731.621,35.8a.575.575,0,0,0,.536-.6c-.008-.125-.264.109-.586.142s-.592-.142-.581-.015A.528.528,0,0,0,731.621,35.8Z" transform="translate(-666.774 -13.435)"/><path class="g" d="M727.187,38.173a.487.487,0,0,0-.586-.379c-.285.047-.607.332-.57.592s.449.4.729.351A.5.5,0,0,0,727.187,38.173Z" transform="translate(-668.643 -12.447)"/><path class="h" d="M727.187,38.173a.487.487,0,0,0-.586-.379c-.285.047-.607.332-.57.592s.449.4.729.351A.5.5,0,0,0,727.187,38.173Z" transform="translate(-668.643 -12.447)"/><path class="g" d="M727.247,38.183a.579.579,0,0,0-.639-.5c-.118.014.125.256.185.571s-.11.6.017.584A.53.53,0,0,0,727.247,38.183Z" transform="translate(-668.436 -12.486)"/><path class="h" d="M727.247,38.183a.579.579,0,0,0-.639-.5c-.118.014.125.256.185.571s-.11.6.017.584A.53.53,0,0,0,727.247,38.183Z" transform="translate(-668.436 -12.486)"/><path class="g" d="M727.882,39.087a.492.492,0,0,0-.368.6c.051.274.344.6.6.548s.39-.456.336-.738A.494.494,0,0,0,727.882,39.087Z" transform="translate(-668.087 -11.96)"/><path class="h" d="M727.882,39.087a.492.492,0,0,0-.368.6c.051.274.344.6.6.548s.39-.456.336-.738A.494.494,0,0,0,727.882,39.087Z" transform="translate(-668.087 -11.96)"/><path class="g" d="M727.88,38.894a.594.594,0,0,0-.485.647c.019.123.256-.125.573-.189s.606.085.584-.036A.535.535,0,0,0,727.88,38.894Z" transform="translate(-668.129 -12.034)"/><path class="h" d="M727.88,38.894a.594.594,0,0,0-.485.647c.019.123.256-.125.573-.189s.606.085.584-.036A.535.535,0,0,0,727.88,38.894Z" transform="translate(-668.129 -12.034)"/><path class="g" d="M740.653,26.411a.492.492,0,0,1-.694-.08c-.188-.213-.263-.64-.062-.816s.6-.019.783.194A.491.491,0,0,1,740.653,26.411Z" transform="translate(-663.462 -17.098)"/><path class="h" d="M740.653,26.411a.492.492,0,0,1-.694-.08c-.188-.213-.263-.64-.062-.816s.6-.019.783.194A.491.491,0,0,1,740.653,26.411Z" transform="translate(-663.462 -17.098)"/><path class="g" d="M740.771,26.507a.583.583,0,0,1-.807-.023c-.084-.085.258-.121.5-.324s.307-.536.39-.436A.53.53,0,0,1,740.771,26.507Z" transform="translate(-663.396 -16.999)"/><path class="h" d="M740.771,26.507a.583.583,0,0,1-.807-.023c-.084-.085.258-.121.5-.324s.307-.536.39-.436A.53.53,0,0,1,740.771,26.507Z" transform="translate(-663.396 -16.999)"/><path class="g" d="M741.929,27.466a.5.5,0,0,1,.505-.492c.285,0,.661.211.669.474s-.37.478-.653.489A.5.5,0,0,1,741.929,27.466Z" transform="translate(-662.651 -16.521)"/><path class="h" d="M741.929,27.466a.5.5,0,0,1,.505-.492c.285,0,.661.211.669.474s-.37.478-.653.489A.5.5,0,0,1,741.929,27.466Z" transform="translate(-662.651 -16.521)"/><path class="g" d="M741.735,27.506a.581.581,0,0,1,.533-.607c.121-.007-.073.278-.067.6s.211.569.081.574A.529.529,0,0,1,741.735,27.506Z" transform="translate(-662.724 -16.549)"/><path class="h" d="M741.735,27.506a.581.581,0,0,1,.533-.607c.121-.007-.073.278-.067.6s.211.569.081.574A.529.529,0,0,1,741.735,27.506Z" transform="translate(-662.724 -16.549)"/><path class="g" d="M738.184,33.089a.5.5,0,0,1-.562-.43c-.045-.282.11-.688.372-.732s.529.292.573.574A.493.493,0,0,1,738.184,33.089Z" transform="translate(-664.277 -14.656)"/><path class="h" d="M738.184,33.089a.5.5,0,0,1-.562-.43c-.045-.282.11-.688.372-.732s.529.292.573.574A.493.493,0,0,1,738.184,33.089Z" transform="translate(-664.277 -14.656)"/><path class="g" d="M738.253,33.14a.583.583,0,0,1-.677-.431c-.029-.125.279.025.6-.032s.534-.289.556-.169A.526.526,0,0,1,738.253,33.14Z" transform="translate(-664.292 -14.448)"/><path class="h" d="M738.253,33.14a.583.583,0,0,1-.677-.431c-.029-.125.279.025.6-.032s.534-.289.556-.169A.526.526,0,0,1,738.253,33.14Z" transform="translate(-664.292 -14.448)"/><path class="e" d="M739.677,35.736a.487.487,0,0,1-.419-.558c.032-.288.3-.635.556-.6s.428.423.4.706A.494.494,0,0,1,739.677,35.736Z" transform="translate(-663.659 -13.657)"/><path class="i" d="M739.677,35.736a.487.487,0,0,1-.419-.558c.032-.288.3-.635.556-.6s.428.423.4.706A.494.494,0,0,1,739.677,35.736Z" transform="translate(-663.659 -13.657)"/><path class="g" d="M739.691,35.784a.57.57,0,0,1-.53-.6c.009-.123.262.11.584.14s.595-.139.581-.01A.525.525,0,0,1,739.691,35.784Z" transform="translate(-663.694 -13.441)"/><path class="h" d="M739.691,35.784a.57.57,0,0,1-.53-.6c.009-.123.262.11.584.14s.595-.139.581-.01A.525.525,0,0,1,739.691,35.784Z" transform="translate(-663.694 -13.441)"/><path class="g" d="M744.162,38.259a.5.5,0,0,1,.592-.383c.277.048.613.328.567.593s-.446.4-.728.348A.5.5,0,0,1,744.162,38.259Z" transform="translate(-661.811 -12.416)"/><path class="h" d="M744.162,38.259a.5.5,0,0,1,.592-.383c.277.048.613.328.567.593s-.446.4-.728.348A.5.5,0,0,1,744.162,38.259Z" transform="translate(-661.811 -12.416)"/><path class="g" d="M743.977,38.262a.584.584,0,0,1,.632-.5c.123.019-.115.257-.177.574s.1.61-.019.584A.527.527,0,0,1,743.977,38.262Z" transform="translate(-661.883 -12.456)"/><path class="h" d="M743.977,38.262a.584.584,0,0,1,.632-.5c.123.019-.115.257-.177.574s.1.61-.019.584A.527.527,0,0,1,743.977,38.262Z" transform="translate(-661.883 -12.456)"/><path class="g" d="M743.359,39.087a.5.5,0,0,1,.372.6c-.056.274-.344.6-.606.548s-.387-.456-.336-.738A.493.493,0,0,1,743.359,39.087Z" transform="translate(-662.331 -11.96)"/><path class="h" d="M743.359,39.087a.5.5,0,0,1,.372.6c-.056.274-.344.6-.606.548s-.387-.456-.336-.738A.493.493,0,0,1,743.359,39.087Z" transform="translate(-662.331 -11.96)"/><path class="g" d="M743.415,38.894a.581.581,0,0,1,.479.647c-.019.123-.253-.125-.57-.189s-.6.085-.581-.036A.533.533,0,0,1,743.415,38.894Z" transform="translate(-662.344 -12.034)"/><path class="h" d="M743.415,38.894a.581.581,0,0,1,.479.647c-.019.123-.253-.125-.57-.189s-.6.085-.581-.036A.533.533,0,0,1,743.415,38.894Z" transform="translate(-662.344 -12.034)"/><path class="j" d="M729.98,38.192a1.943,1.943,0,0,0-.971.263,2.974,2.974,0,0,0-.519.493,1.091,1.091,0,0,0-.226.609l.613-.263-.153.445a1.312,1.312,0,0,0-.073.6,1.012,1.012,0,0,1,.341-.314.383.383,0,0,1,.31-.015,1.245,1.245,0,0,0-.262,1.341.54.54,0,0,1,.435-.249s.005.4,0,.632a1.3,1.3,0,0,0,.183.58,2.245,2.245,0,0,1,.18-.46,1,1,0,0,1,.208-.229,1.56,1.56,0,0,0,.023.658.931.931,0,0,0,.415.559l.153-.434a5.582,5.582,0,0,0,.2.654,2.22,2.22,0,0,0,.43.434l.059-.5a3.882,3.882,0,0,0,.205.4,1.347,1.347,0,0,0,.359.377l.1-.394a1.546,1.546,0,0,0,.522.516,3.1,3.1,0,0,0,.647.284l-.068-.72.353.044a1.79,1.79,0,0,0-.269-.717l.1-.012a.635.635,0,0,1,.285.062,1.624,1.624,0,0,0-.258-.694l.336.067a.812.812,0,0,0-.35-.6.693.693,0,0,1,.215-.1.889.889,0,0,1,.234-.045.685.685,0,0,0-.113-.341.916.916,0,0,0-.417-.335.592.592,0,0,1,.339-.262c.154-.032.288-.066.288-.066s-.107-.339-.308-.394a1,1,0,0,1-.409-.2l.35-.368a2.248,2.248,0,0,0-.366-.346.894.894,0,0,0-.534-.168.957.957,0,0,1,.169-.355l.249-.2a.934.934,0,0,0-.474-.257,1.588,1.588,0,0,0-.435.025l.169-.366a1.126,1.126,0,0,0-.8-.069l.237-.278a1.183,1.183,0,0,0-.866.025A1.883,1.883,0,0,0,729.98,38.192Z" transform="translate(-667.8 -12.587)"/><path class="k" d="M729.98,38.192a1.943,1.943,0,0,0-.971.263,2.974,2.974,0,0,0-.519.493,1.091,1.091,0,0,0-.226.609l.613-.263-.153.445a1.312,1.312,0,0,0-.073.6,1.012,1.012,0,0,1,.341-.314.383.383,0,0,1,.31-.015,1.245,1.245,0,0,0-.262,1.341.54.54,0,0,1,.435-.249s.005.4,0,.632a1.3,1.3,0,0,0,.183.58,2.245,2.245,0,0,1,.18-.46,1,1,0,0,1,.208-.229,1.56,1.56,0,0,0,.023.658.931.931,0,0,0,.415.559l.153-.434a5.582,5.582,0,0,0,.2.654,2.22,2.22,0,0,0,.43.434l.059-.5a3.882,3.882,0,0,0,.205.4,1.347,1.347,0,0,0,.359.377l.1-.394a1.546,1.546,0,0,0,.522.516,3.1,3.1,0,0,0,.647.284l-.068-.72.353.044a1.79,1.79,0,0,0-.269-.717l.1-.012a.635.635,0,0,1,.285.062,1.624,1.624,0,0,0-.258-.694l.336.067a.812.812,0,0,0-.35-.6.693.693,0,0,1,.215-.1.889.889,0,0,1,.234-.045.685.685,0,0,0-.113-.341.916.916,0,0,0-.417-.335.592.592,0,0,1,.339-.262c.154-.032.288-.066.288-.066s-.107-.339-.308-.394a1,1,0,0,1-.409-.2l.35-.368a2.248,2.248,0,0,0-.366-.346.894.894,0,0,0-.534-.168.957.957,0,0,1,.169-.355l.249-.2a.934.934,0,0,0-.474-.257,1.588,1.588,0,0,0-.435.025l.169-.366a1.126,1.126,0,0,0-.8-.069l.237-.278a1.183,1.183,0,0,0-.866.025A1.883,1.883,0,0,0,729.98,38.192Z" transform="translate(-667.8 -12.587)"/><path class="l" d="M727.37,40.76a1.976,1.976,0,0,1,.892-.464,3.022,3.022,0,0,1,.716.014,1.066,1.066,0,0,1,.575.3l-.628.22.412.227a1.161,1.161,0,0,1,.439.355,1.228,1.228,0,0,0-.447.039.335.335,0,0,0-.226.2,1.6,1.6,0,0,1,.657.231,1.752,1.752,0,0,1,.438.573.544.544,0,0,0-.491.109s.274.306.432.465a1.241,1.241,0,0,1,.253.555,2.338,2.338,0,0,0-.443-.212.8.8,0,0,0-.31-.034,1.62,1.62,0,0,1,.434.505.934.934,0,0,1,.072.687l-.4-.216a5.069,5.069,0,0,1,.293.622,2.075,2.075,0,0,1-.021.606l-.386-.328a4.119,4.119,0,0,1,.121.438,1.354,1.354,0,0,1-.008.525l-.342-.229a1.681,1.681,0,0,1-.029.734,3.45,3.45,0,0,1-.29.648l-.437-.574-.234.268c-.229.277-.285-.709-.285-.709l-.088.058a.606.606,0,0,0-.172.238,1.585,1.585,0,0,1-.274-.68l-.2.27c-.2.286-.147-.673-.147-.673a.608.608,0,0,0-.223.07c-.194.1-.208.123-.208.123a.691.691,0,0,1-.15-.326.906.906,0,0,1,.081-.525.6.6,0,0,0-.426.032c-.138.081-.25.145-.25.145s-.15-.319-.042-.49a1.039,1.039,0,0,0,.161-.43l-.5-.028a2.049,2.049,0,0,1,.029-.507A.875.875,0,0,1,726,43.1a.606.606,0,0,0-.37-.153l-.319.029a.953.953,0,0,1,.174-.515,1.833,1.833,0,0,1,.334-.278l-.366-.15c-.328-.131.544-.593.544-.593l-.364-.045a1.169,1.169,0,0,1,.651-.57A1.867,1.867,0,0,1,727.37,40.76Z" transform="translate(-668.913 -11.507)"/><path class="m" d="M727.37,40.76a1.976,1.976,0,0,1,.892-.464,3.022,3.022,0,0,1,.716.014,1.066,1.066,0,0,1,.575.3l-.628.22.412.227a1.161,1.161,0,0,1,.439.355,1.228,1.228,0,0,0-.447.039.335.335,0,0,0-.226.2,1.6,1.6,0,0,1,.657.231,1.752,1.752,0,0,1,.438.573.544.544,0,0,0-.491.109s.274.306.432.465a1.241,1.241,0,0,1,.253.555,2.338,2.338,0,0,0-.443-.212.8.8,0,0,0-.31-.034,1.62,1.62,0,0,1,.434.505.934.934,0,0,1,.072.687l-.4-.216a5.069,5.069,0,0,1,.293.622,2.075,2.075,0,0,1-.021.606l-.386-.328a4.119,4.119,0,0,1,.121.438,1.354,1.354,0,0,1-.008.525l-.342-.229a1.681,1.681,0,0,1-.029.734,3.45,3.45,0,0,1-.29.648l-.437-.574-.234.268c-.229.277-.285-.709-.285-.709l-.088.058a.606.606,0,0,0-.172.238,1.585,1.585,0,0,1-.274-.68l-.2.27c-.2.286-.147-.673-.147-.673a.608.608,0,0,0-.223.07c-.194.1-.208.123-.208.123a.691.691,0,0,1-.15-.326.906.906,0,0,1,.081-.525.6.6,0,0,0-.426.032c-.138.081-.25.145-.25.145s-.15-.319-.042-.49a1.039,1.039,0,0,0,.161-.43l-.5-.028a2.049,2.049,0,0,1,.029-.507A.875.875,0,0,1,726,43.1a.606.606,0,0,0-.37-.153l-.319.029a.953.953,0,0,1,.174-.515,1.833,1.833,0,0,1,.334-.278l-.366-.15c-.328-.131.544-.593.544-.593l-.364-.045a1.169,1.169,0,0,1,.651-.57A1.867,1.867,0,0,1,727.37,40.76Z" transform="translate(-668.913 -11.507)"/><path class="j" d="M730.615,38.009a1.945,1.945,0,0,1-.7.72,2.992,2.992,0,0,1-.686.209,1.045,1.045,0,0,1-.64-.094l.524-.41-.46-.081a1.246,1.246,0,0,1-.561-.23.917.917,0,0,0,.442-.15.354.354,0,0,0,.156-.256,1.565,1.565,0,0,1-.7-.011,1.681,1.681,0,0,1-.594-.409.536.536,0,0,0,.43-.257s-.355-.2-.556-.308a1.241,1.241,0,0,1-.412-.442,2.309,2.309,0,0,0,.489.066.927.927,0,0,0,.3-.067,1.564,1.564,0,0,1-.567-.347.951.951,0,0,1-.291-.631l.454.08a5.145,5.145,0,0,1-.471-.493,2.037,2.037,0,0,1-.169-.588l.465.193a4.508,4.508,0,0,1-.255-.377,1.357,1.357,0,0,1-.156-.493l.4.1a1.607,1.607,0,0,1-.205-.708,3.146,3.146,0,0,1,.067-.7l.6.4.134-.324a1.919,1.919,0,0,1,.5.581l.055-.081a.681.681,0,0,0,.088-.282,1.712,1.712,0,0,1,.479.563l.107-.328a.813.813,0,0,1,.353.6.686.686,0,0,0,.19-.146c.151-.149.157-.18.157-.18a.69.69,0,0,1,.246.268.852.852,0,0,1,.084.52.589.589,0,0,0,.4-.165c.1-.12.2-.22.2-.22s.24.259.2.461a.968.968,0,0,0-.025.452l.49-.124a2.251,2.251,0,0,1,.127.486.9.9,0,0,1-.115.551,1,1,0,0,0,.4.022l.3-.121a.988.988,0,0,1-.006.545,1.941,1.941,0,0,1-.234.365l.4.023c.051.346-.327.737-.327.737l.351-.072a1.152,1.152,0,0,1-.432.75A1.912,1.912,0,0,1,730.615,38.009Z" transform="translate(-668.426 -14.506)"/><path class="k" d="M730.615,38.009a1.945,1.945,0,0,1-.7.72,2.992,2.992,0,0,1-.686.209,1.045,1.045,0,0,1-.64-.094l.524-.41-.46-.081a1.246,1.246,0,0,1-.561-.23.917.917,0,0,0,.442-.15.354.354,0,0,0,.156-.256,1.565,1.565,0,0,1-.7-.011,1.681,1.681,0,0,1-.594-.409.536.536,0,0,0,.43-.257s-.355-.2-.556-.308a1.241,1.241,0,0,1-.412-.442,2.309,2.309,0,0,0,.489.066.927.927,0,0,0,.3-.067,1.564,1.564,0,0,1-.567-.347.951.951,0,0,1-.291-.631l.454.08a5.145,5.145,0,0,1-.471-.493,2.037,2.037,0,0,1-.169-.588l.465.193a4.508,4.508,0,0,1-.255-.377,1.357,1.357,0,0,1-.156-.493l.4.1a1.607,1.607,0,0,1-.205-.708,3.146,3.146,0,0,1,.067-.7l.6.4.134-.324a1.919,1.919,0,0,1,.5.581l.055-.081a.681.681,0,0,0,.088-.282,1.712,1.712,0,0,1,.479.563l.107-.328a.813.813,0,0,1,.353.6.686.686,0,0,0,.19-.146c.151-.149.157-.18.157-.18a.69.69,0,0,1,.246.268.852.852,0,0,1,.084.52.589.589,0,0,0,.4-.165c.1-.12.2-.22.2-.22s.24.259.2.461a.968.968,0,0,0-.025.452l.49-.124a2.251,2.251,0,0,1,.127.486.9.9,0,0,1-.115.551,1,1,0,0,0,.4.022l.3-.121a.988.988,0,0,1-.006.545,1.941,1.941,0,0,1-.234.365l.4.023c.051.346-.327.737-.327.737l.351-.072a1.152,1.152,0,0,1-.432.75A1.912,1.912,0,0,1,730.615,38.009Z" transform="translate(-668.426 -14.506)"/><path class="l" d="M730.226,27.365a1.706,1.706,0,0,1-.627.648,2.963,2.963,0,0,1-.615.2,1,1,0,0,1-.576-.092l.468-.368-.409-.076a1.117,1.117,0,0,1-.505-.2.87.87,0,0,0,.4-.131.332.332,0,0,0,.142-.237,1.42,1.42,0,0,1-.635-.01,1.533,1.533,0,0,1-.531-.368.5.5,0,0,0,.392-.231s-.326-.183-.505-.277a1.112,1.112,0,0,1-.377-.4,2,2,0,0,0,.441.054.744.744,0,0,0,.276-.058,1.408,1.408,0,0,1-.511-.31.852.852,0,0,1-.267-.57l.415.074a4.462,4.462,0,0,1-.431-.449,1.936,1.936,0,0,1-.147-.525l.414.172a3.717,3.717,0,0,1-.226-.339,1.183,1.183,0,0,1-.143-.442l.358.088a1.388,1.388,0,0,1-.18-.633,3.11,3.11,0,0,1,.059-.639l.538.365.122-.292a1.671,1.671,0,0,1,.446.527l.054-.078a.651.651,0,0,0,.085-.252,1.449,1.449,0,0,1,.423.507l.1-.292a.716.716,0,0,1,.315.536.669.669,0,0,0,.175-.127.922.922,0,0,0,.142-.161.7.7,0,0,1,.22.238.787.787,0,0,1,.078.47.54.54,0,0,0,.355-.149c.091-.107.178-.2.178-.2s.212.231.169.421a.872.872,0,0,0-.016.4l.439-.118a2.115,2.115,0,0,1,.115.439.808.808,0,0,1-.106.5.905.905,0,0,0,.358.025l.269-.114a.861.861,0,0,1-.007.489,1.492,1.492,0,0,1-.205.328l.355.025c.048.314-.293.662-.293.662l.319-.063a1.036,1.036,0,0,1-.4.671A1.613,1.613,0,0,1,730.226,27.365Z" transform="translate(-668.42 -18.302)"/><path class="m" d="M730.226,27.365a1.706,1.706,0,0,1-.627.648,2.963,2.963,0,0,1-.615.2,1,1,0,0,1-.576-.092l.468-.368-.409-.076a1.117,1.117,0,0,1-.505-.2.87.87,0,0,0,.4-.131.332.332,0,0,0,.142-.237,1.42,1.42,0,0,1-.635-.01,1.533,1.533,0,0,1-.531-.368.5.5,0,0,0,.392-.231s-.326-.183-.505-.277a1.112,1.112,0,0,1-.377-.4,2,2,0,0,0,.441.054.744.744,0,0,0,.276-.058,1.408,1.408,0,0,1-.511-.31.852.852,0,0,1-.267-.57l.415.074a4.462,4.462,0,0,1-.431-.449,1.936,1.936,0,0,1-.147-.525l.414.172a3.717,3.717,0,0,1-.226-.339,1.183,1.183,0,0,1-.143-.442l.358.088a1.388,1.388,0,0,1-.18-.633,3.11,3.11,0,0,1,.059-.639l.538.365.122-.292a1.671,1.671,0,0,1,.446.527l.054-.078a.651.651,0,0,0,.085-.252,1.449,1.449,0,0,1,.423.507l.1-.292a.716.716,0,0,1,.315.536.669.669,0,0,0,.175-.127.922.922,0,0,0,.142-.161.7.7,0,0,1,.22.238.787.787,0,0,1,.078.47.54.54,0,0,0,.355-.149c.091-.107.178-.2.178-.2s.212.231.169.421a.872.872,0,0,0-.016.4l.439-.118a2.115,2.115,0,0,1,.115.439.808.808,0,0,1-.106.5.905.905,0,0,0,.358.025l.269-.114a.861.861,0,0,1-.007.489,1.492,1.492,0,0,1-.205.328l.355.025c.048.314-.293.662-.293.662l.319-.063a1.036,1.036,0,0,1-.4.671A1.613,1.613,0,0,1,730.226,27.365Z" transform="translate(-668.42 -18.302)"/><path class="j" d="M731.263,29.424a1.782,1.782,0,0,1,.629.653,2.89,2.89,0,0,1,.158.624.936.936,0,0,1-.1.573l-.35-.485-.088.414a1.077,1.077,0,0,1-.22.487.923.923,0,0,0-.121-.4.342.342,0,0,0-.231-.15,1.326,1.326,0,0,1-.033.625,1.508,1.508,0,0,1-.39.525.478.478,0,0,0-.218-.394s-.194.311-.3.485a1.093,1.093,0,0,1-.409.359,1.758,1.758,0,0,0,.07-.434.84.84,0,0,0-.046-.275,1.487,1.487,0,0,1-.327.5.835.835,0,0,1-.575.238l.08-.406a3.662,3.662,0,0,1-.457.409,1.943,1.943,0,0,1-.533.132l.186-.413a4.011,4.011,0,0,1-.344.216,1.235,1.235,0,0,1-.454.124l.11-.351a1.442,1.442,0,0,1-.643.157,3.009,3.009,0,0,1-.632-.085l.383-.523-.29-.131a1.631,1.631,0,0,1,.548-.43l-.077-.056a.59.59,0,0,0-.25-.085,1.416,1.416,0,0,1,.524-.412l-.291-.109a.719.719,0,0,1,.548-.3A.64.64,0,0,0,727,30.33a.931.931,0,0,0-.156-.143.619.619,0,0,1,.242-.213.811.811,0,0,1,.474-.056.511.511,0,0,0-.138-.361c-.1-.1-.188-.186-.188-.186s.242-.208.423-.158a.862.862,0,0,0,.4.033l-.1-.442a2.142,2.142,0,0,1,.443-.1.774.774,0,0,1,.492.121.97.97,0,0,0,.039-.359l-.1-.268a.9.9,0,0,1,.485.022,1.547,1.547,0,0,1,.323.222l.038-.358c.314-.033.653.325.653.325l-.054-.328a1.049,1.049,0,0,1,.657.424A1.658,1.658,0,0,1,731.263,29.424Z" transform="translate(-668.644 -16.104)"/><path class="k" d="M731.263,29.424a1.782,1.782,0,0,1,.629.653,2.89,2.89,0,0,1,.158.624.936.936,0,0,1-.1.573l-.35-.485-.088.414a1.077,1.077,0,0,1-.22.487.923.923,0,0,0-.121-.4.342.342,0,0,0-.231-.15,1.326,1.326,0,0,1-.033.625,1.508,1.508,0,0,1-.39.525.478.478,0,0,0-.218-.394s-.194.311-.3.485a1.093,1.093,0,0,1-.409.359,1.758,1.758,0,0,0,.07-.434.84.84,0,0,0-.046-.275,1.487,1.487,0,0,1-.327.5.835.835,0,0,1-.575.238l.08-.406a3.662,3.662,0,0,1-.457.409,1.943,1.943,0,0,1-.533.132l.186-.413a4.011,4.011,0,0,1-.344.216,1.235,1.235,0,0,1-.454.124l.11-.351a1.442,1.442,0,0,1-.643.157,3.009,3.009,0,0,1-.632-.085l.383-.523-.29-.131a1.631,1.631,0,0,1,.548-.43l-.077-.056a.59.59,0,0,0-.25-.085,1.416,1.416,0,0,1,.524-.412l-.291-.109a.719.719,0,0,1,.548-.3A.64.64,0,0,0,727,30.33a.931.931,0,0,0-.156-.143.619.619,0,0,1,.242-.213.811.811,0,0,1,.474-.056.511.511,0,0,0-.138-.361c-.1-.1-.188-.186-.188-.186s.242-.208.423-.158a.862.862,0,0,0,.4.033l-.1-.442a2.142,2.142,0,0,1,.443-.1.774.774,0,0,1,.492.121.97.97,0,0,0,.039-.359l-.1-.268a.9.9,0,0,1,.485.022,1.547,1.547,0,0,1,.323.222l.038-.358c.314-.033.653.325.653.325l-.054-.328a1.049,1.049,0,0,1,.657.424A1.658,1.658,0,0,1,731.263,29.424Z" transform="translate(-668.644 -16.104)"/><path class="j" d="M731.134,29.6a1.725,1.725,0,0,0,.3.851,2.253,2.253,0,0,0,.48.435.975.975,0,0,0,.558.162l-.275-.534.406.107a1.184,1.184,0,0,0,.541.032.887.887,0,0,1-.3-.293.343.343,0,0,1-.032-.275,1.365,1.365,0,0,0,.581.255,1.466,1.466,0,0,0,.632-.1.488.488,0,0,1-.25-.374s.367-.032.573-.039a1.118,1.118,0,0,0,.511-.207,1.846,1.846,0,0,1-.432-.129.786.786,0,0,1-.216-.171,1.447,1.447,0,0,0,.592-.065.816.816,0,0,0,.471-.409l-.4-.109a4.357,4.357,0,0,0,.575-.22,1.94,1.94,0,0,0,.359-.416l-.452-.019s.164-.087.353-.208a1.236,1.236,0,0,0,.313-.35l-.361-.062a1.473,1.473,0,0,0,.43-.5,2.9,2.9,0,0,0,.208-.6l-.635.106.014-.315a1.639,1.639,0,0,0-.626.284l-.019-.088a.666.666,0,0,1,.037-.259,1.4,1.4,0,0,0-.6.278l.031-.311a.736.736,0,0,0-.513.359.766.766,0,0,1-.107-.193,1.255,1.255,0,0,1-.057-.2.677.677,0,0,0-.3.117.8.8,0,0,0-.269.4.54.54,0,0,1-.262-.284c-.034-.139-.071-.257-.071-.257s-.294.12-.336.3a.831.831,0,0,1-.157.38l-.35-.288a2.448,2.448,0,0,0-.291.351.822.822,0,0,0-.113.493.841.841,0,0,1-.33-.128l-.2-.218a.873.873,0,0,0-.2.446,1.831,1.831,0,0,0,.048.388l-.336-.134a1.028,1.028,0,0,0-.014.728l-.26-.194a1.083,1.083,0,0,0,.076.777A1.71,1.71,0,0,0,731.134,29.6Z" transform="translate(-667.015 -16.896)"/><path class="k" d="M731.134,29.6a1.725,1.725,0,0,0,.3.851,2.253,2.253,0,0,0,.48.435.975.975,0,0,0,.558.162l-.275-.534.406.107a1.184,1.184,0,0,0,.541.032.887.887,0,0,1-.3-.293.343.343,0,0,1-.032-.275,1.365,1.365,0,0,0,.581.255,1.466,1.466,0,0,0,.632-.1.488.488,0,0,1-.25-.374s.367-.032.573-.039a1.118,1.118,0,0,0,.511-.207,1.846,1.846,0,0,1-.432-.129.786.786,0,0,1-.216-.171,1.447,1.447,0,0,0,.592-.065.816.816,0,0,0,.471-.409l-.4-.109a4.357,4.357,0,0,0,.575-.22,1.94,1.94,0,0,0,.359-.416l-.452-.019s.164-.087.353-.208a1.236,1.236,0,0,0,.313-.35l-.361-.062a1.473,1.473,0,0,0,.43-.5,2.9,2.9,0,0,0,.208-.6l-.635.106.014-.315a1.639,1.639,0,0,0-.626.284l-.019-.088a.666.666,0,0,1,.037-.259,1.4,1.4,0,0,0-.6.278l.031-.311a.736.736,0,0,0-.513.359.766.766,0,0,1-.107-.193,1.255,1.255,0,0,1-.057-.2.677.677,0,0,0-.3.117.8.8,0,0,0-.269.4.54.54,0,0,1-.262-.284c-.034-.139-.071-.257-.071-.257s-.294.12-.336.3a.831.831,0,0,1-.157.38l-.35-.288a2.448,2.448,0,0,0-.291.351.822.822,0,0,0-.113.493.841.841,0,0,1-.33-.128l-.2-.218a.873.873,0,0,0-.2.446,1.831,1.831,0,0,0,.048.388l-.336-.134a1.028,1.028,0,0,0-.014.728l-.26-.194a1.083,1.083,0,0,0,.076.777A1.71,1.71,0,0,0,731.134,29.6Z" transform="translate(-667.015 -16.896)"/><path class="j" d="M742.576,38.192a1.945,1.945,0,0,1,.971.263,2.967,2.967,0,0,1,.516.493,1.08,1.08,0,0,1,.226.609l-.616-.263.16.445a1.24,1.24,0,0,1,.066.6.962.962,0,0,0-.339-.314.375.375,0,0,0-.306-.015,1.6,1.6,0,0,1,.328.62,1.666,1.666,0,0,1-.068.721.545.545,0,0,0-.435-.249s0,.4,0,.632a1.285,1.285,0,0,1-.183.58,2.464,2.464,0,0,0-.18-.46.926.926,0,0,0-.209-.229,1.58,1.58,0,0,1-.019.658.953.953,0,0,1-.417.559l-.15-.434a5.142,5.142,0,0,1-.2.654,2.14,2.14,0,0,1-.429.434l-.062-.5a3.518,3.518,0,0,1-.2.4,1.329,1.329,0,0,1-.358.377l-.1-.394a1.57,1.57,0,0,1-.519.516,3.136,3.136,0,0,1-.646.284l.056-.72-.35.044a1.82,1.82,0,0,1,.271-.717l-.1-.012a.643.643,0,0,0-.285.062,1.625,1.625,0,0,1,.259-.694l-.337.067a.8.8,0,0,1,.352-.6.731.731,0,0,0-.218-.1.861.861,0,0,0-.237-.045.7.7,0,0,1,.116-.341.918.918,0,0,1,.414-.335.58.58,0,0,0-.336-.262c-.156-.032-.288-.066-.288-.066s.11-.339.308-.394a.948.948,0,0,0,.4-.2l-.344-.368a2.466,2.466,0,0,1,.364-.346.914.914,0,0,1,.541-.168.982.982,0,0,0-.172-.355l-.253-.2a.947.947,0,0,1,.479-.257,1.559,1.559,0,0,1,.429.025l-.167-.366a1.112,1.112,0,0,1,.8-.069l-.231-.278a1.182,1.182,0,0,1,.866.025A1.889,1.889,0,0,1,742.576,38.192Z" transform="translate(-663.862 -12.587)"/><path class="k" d="M742.576,38.192a1.945,1.945,0,0,1,.971.263,2.967,2.967,0,0,1,.516.493,1.08,1.08,0,0,1,.226.609l-.616-.263.16.445a1.24,1.24,0,0,1,.066.6.962.962,0,0,0-.339-.314.375.375,0,0,0-.306-.015,1.6,1.6,0,0,1,.328.62,1.666,1.666,0,0,1-.068.721.545.545,0,0,0-.435-.249s0,.4,0,.632a1.285,1.285,0,0,1-.183.58,2.464,2.464,0,0,0-.18-.46.926.926,0,0,0-.209-.229,1.58,1.58,0,0,1-.019.658.953.953,0,0,1-.417.559l-.15-.434a5.142,5.142,0,0,1-.2.654,2.14,2.14,0,0,1-.429.434l-.062-.5a3.518,3.518,0,0,1-.2.4,1.329,1.329,0,0,1-.358.377l-.1-.394a1.57,1.57,0,0,1-.519.516,3.136,3.136,0,0,1-.646.284l.056-.72-.35.044a1.82,1.82,0,0,1,.271-.717l-.1-.012a.643.643,0,0,0-.285.062,1.625,1.625,0,0,1,.259-.694l-.337.067a.8.8,0,0,1,.352-.6.731.731,0,0,0-.218-.1.861.861,0,0,0-.237-.045.7.7,0,0,1,.116-.341.918.918,0,0,1,.414-.335.58.58,0,0,0-.336-.262c-.156-.032-.288-.066-.288-.066s.11-.339.308-.394a.948.948,0,0,0,.4-.2l-.344-.368a2.466,2.466,0,0,1,.364-.346.914.914,0,0,1,.541-.168.982.982,0,0,0-.172-.355l-.253-.2a.947.947,0,0,1,.479-.257,1.559,1.559,0,0,1,.429.025l-.167-.366a1.112,1.112,0,0,1,.8-.069l-.231-.278a1.182,1.182,0,0,1,.866.025A1.889,1.889,0,0,1,742.576,38.192Z" transform="translate(-663.862 -12.587)"/><path class="j" d="M745.056,40.875a2.031,2.031,0,0,0-.892-.463,3.179,3.179,0,0,0-.716.015,1.073,1.073,0,0,0-.577.3l.629.222-.412.224c-.323.175-.412.246-.428.321a1.488,1.488,0,0,1,.434.07.455.455,0,0,1,.252.207,1.559,1.559,0,0,0-.68.226,1.667,1.667,0,0,0-.441.573.538.538,0,0,1,.492.11s-.271.3-.427.464a1.227,1.227,0,0,0-.256.553,2.235,2.235,0,0,1,.446-.215.91.91,0,0,1,.307-.033,1.605,1.605,0,0,0-.435.5.947.947,0,0,0-.073.694l.412-.218a4.855,4.855,0,0,0-.3.617,2.1,2.1,0,0,0,.029.609l.38-.326a3.874,3.874,0,0,0-.124.435,1.225,1.225,0,0,0,.017.516l.336-.222a1.663,1.663,0,0,0,.029.741,3.211,3.211,0,0,0,.291.642l.439-.571.226.266a1.813,1.813,0,0,0,.291-.708l.085.058a.646.646,0,0,1,.167.238,1.591,1.591,0,0,0,.274-.68l.208.273a.8.8,0,0,0,.153-.677.567.567,0,0,1,.223.077.8.8,0,0,1,.205.118.751.751,0,0,0,.15-.328.912.912,0,0,0-.085-.523.576.576,0,0,1,.427.032c.135.081.256.143.256.143s.15-.318.043-.5a.966.966,0,0,1-.164-.423l.5-.029a2.157,2.157,0,0,0-.029-.5.937.937,0,0,0-.282-.493.965.965,0,0,1,.365-.146l.324.023a.941.941,0,0,0-.18-.514,1.749,1.749,0,0,0-.332-.274l.372-.15c-.064-.347-.546-.6-.546-.6l.363-.045a1.155,1.155,0,0,0-.652-.567A1.883,1.883,0,0,0,745.056,40.875Z" transform="translate(-662.611 -11.463)"/><path class="k" d="M745.056,40.875a2.031,2.031,0,0,0-.892-.463,3.179,3.179,0,0,0-.716.015,1.073,1.073,0,0,0-.577.3l.629.222-.412.224c-.323.175-.412.246-.428.321a1.488,1.488,0,0,1,.434.07.455.455,0,0,1,.252.207,1.559,1.559,0,0,0-.68.226,1.667,1.667,0,0,0-.441.573.538.538,0,0,1,.492.11s-.271.3-.427.464a1.227,1.227,0,0,0-.256.553,2.235,2.235,0,0,1,.446-.215.91.91,0,0,1,.307-.033,1.605,1.605,0,0,0-.435.5.947.947,0,0,0-.073.694l.412-.218a4.855,4.855,0,0,0-.3.617,2.1,2.1,0,0,0,.029.609l.38-.326a3.874,3.874,0,0,0-.124.435,1.225,1.225,0,0,0,.017.516l.336-.222a1.663,1.663,0,0,0,.029.741,3.211,3.211,0,0,0,.291.642l.439-.571.226.266a1.813,1.813,0,0,0,.291-.708l.085.058a.646.646,0,0,1,.167.238,1.591,1.591,0,0,0,.274-.68l.208.273a.8.8,0,0,0,.153-.677.567.567,0,0,1,.223.077.8.8,0,0,1,.205.118.751.751,0,0,0,.15-.328.912.912,0,0,0-.085-.523.576.576,0,0,1,.427.032c.135.081.256.143.256.143s.15-.318.043-.5a.966.966,0,0,1-.164-.423l.5-.029a2.157,2.157,0,0,0-.029-.5.937.937,0,0,0-.282-.493.965.965,0,0,1,.365-.146l.324.023a.941.941,0,0,0-.18-.514,1.749,1.749,0,0,0-.332-.274l.372-.15c-.064-.347-.546-.6-.546-.6l.363-.045a1.155,1.155,0,0,0-.652-.567A1.883,1.883,0,0,0,745.056,40.875Z" transform="translate(-662.611 -11.463)"/><path class="j" d="M741.91,38.009a1.932,1.932,0,0,0,.7.72,2.835,2.835,0,0,0,.686.209,1.048,1.048,0,0,0,.639-.094l-.523-.41.46-.081a1.245,1.245,0,0,0,.559-.23.921.921,0,0,1-.442-.15.362.362,0,0,1-.161-.256,1.57,1.57,0,0,0,.7-.011,1.726,1.726,0,0,0,.6-.409.552.552,0,0,1-.437-.257s.358-.2.556-.308a1.172,1.172,0,0,0,.417-.442,2.313,2.313,0,0,1-.491.066.924.924,0,0,1-.3-.067,1.543,1.543,0,0,0,.564-.347.947.947,0,0,0,.293-.631l-.454.08a5.079,5.079,0,0,0,.474-.493,2.243,2.243,0,0,0,.169-.588l-.468.193s.124-.161.255-.377a1.25,1.25,0,0,0,.151-.493l-.392.1a1.616,1.616,0,0,0,.2-.708,3.228,3.228,0,0,0-.07-.7l-.6.4-.132-.324a1.8,1.8,0,0,0-.5.581l-.062-.081a.647.647,0,0,1-.087-.282,1.679,1.679,0,0,0-.475.563l-.109-.328a.8.8,0,0,0-.357.6.693.693,0,0,1-.188-.146c-.15-.149-.156-.18-.156-.18a.792.792,0,0,0-.253.268.916.916,0,0,0-.081.52.593.593,0,0,1-.4-.165c-.1-.12-.2-.22-.2-.22s-.24.259-.189.461a1.1,1.1,0,0,1,.014.452l-.485-.124a2.071,2.071,0,0,0-.126.486.879.879,0,0,0,.115.551,1.009,1.009,0,0,1-.4.022l-.289-.121a.943.943,0,0,0,0,.545,1.956,1.956,0,0,0,.224.365l-.391.023c-.049.346.332.737.332.737l-.364-.072a1.2,1.2,0,0,0,.441.75A1.9,1.9,0,0,0,741.91,38.009Z" transform="translate(-663.205 -14.506)"/><path class="k" d="M741.91,38.009a1.932,1.932,0,0,0,.7.72,2.835,2.835,0,0,0,.686.209,1.048,1.048,0,0,0,.639-.094l-.523-.41.46-.081a1.245,1.245,0,0,0,.559-.23.921.921,0,0,1-.442-.15.362.362,0,0,1-.161-.256,1.57,1.57,0,0,0,.7-.011,1.726,1.726,0,0,0,.6-.409.552.552,0,0,1-.437-.257s.358-.2.556-.308a1.172,1.172,0,0,0,.417-.442,2.313,2.313,0,0,1-.491.066.924.924,0,0,1-.3-.067,1.543,1.543,0,0,0,.564-.347.947.947,0,0,0,.293-.631l-.454.08a5.079,5.079,0,0,0,.474-.493,2.243,2.243,0,0,0,.169-.588l-.468.193s.124-.161.255-.377a1.25,1.25,0,0,0,.151-.493l-.392.1a1.616,1.616,0,0,0,.2-.708,3.228,3.228,0,0,0-.07-.7l-.6.4-.132-.324a1.8,1.8,0,0,0-.5.581l-.062-.081a.647.647,0,0,1-.087-.282,1.679,1.679,0,0,0-.475.563l-.109-.328a.8.8,0,0,0-.357.6.693.693,0,0,1-.188-.146c-.15-.149-.156-.18-.156-.18a.792.792,0,0,0-.253.268.916.916,0,0,0-.081.52.593.593,0,0,1-.4-.165c-.1-.12-.2-.22-.2-.22s-.24.259-.189.461a1.1,1.1,0,0,1,.014.452l-.485-.124a2.071,2.071,0,0,0-.126.486.879.879,0,0,0,.115.551,1.009,1.009,0,0,1-.4.022l-.289-.121a.943.943,0,0,0,0,.545,1.956,1.956,0,0,0,.224.365l-.391.023c-.049.346.332.737.332.737l-.364-.072a1.2,1.2,0,0,0,.441.75A1.9,1.9,0,0,0,741.91,38.009Z" transform="translate(-663.205 -14.506)"/><path class="j" d="M742.142,27.365a1.713,1.713,0,0,0,.632.648,2.959,2.959,0,0,0,.613.2,1.021,1.021,0,0,0,.581-.092l-.472-.368.416-.076a1.145,1.145,0,0,0,.5-.2.867.867,0,0,1-.4-.131.332.332,0,0,1-.142-.237,1.384,1.384,0,0,0,.626-.01,1.558,1.558,0,0,0,.541-.368.485.485,0,0,1-.388-.231s.318-.183.5-.277a1.086,1.086,0,0,0,.376-.4,2.04,2.04,0,0,1-.443.054.727.727,0,0,1-.271-.058,1.468,1.468,0,0,0,.513-.31.858.858,0,0,0,.263-.57l-.412.074a4.223,4.223,0,0,0,.428-.449,1.873,1.873,0,0,0,.15-.525l-.42.172a3.483,3.483,0,0,0,.229-.339,1.1,1.1,0,0,0,.135-.442l-.353.088a1.374,1.374,0,0,0,.183-.633,2.879,2.879,0,0,0-.065-.639l-.533.365-.12-.292a1.691,1.691,0,0,0-.45.527l-.054-.078a.611.611,0,0,1-.074-.252,1.429,1.429,0,0,0-.434.507l-.094-.292a.71.71,0,0,0-.321.536.628.628,0,0,1-.172-.127.9.9,0,0,1-.145-.161.693.693,0,0,0-.22.238.769.769,0,0,0-.07.47.54.54,0,0,1-.358-.149c-.094-.107-.177-.2-.177-.2s-.218.231-.175.421a.961.961,0,0,1,.019.4l-.438-.118a2.018,2.018,0,0,0-.116.439.821.821,0,0,0,.1.5.863.863,0,0,1-.353.025l-.269-.114a.885.885,0,0,0,0,.489,1.656,1.656,0,0,0,.212.328l-.361.025a1.007,1.007,0,0,0,.291.662l-.317-.063a1.054,1.054,0,0,0,.4.671A1.628,1.628,0,0,0,742.142,27.365Z" transform="translate(-663.061 -18.302)"/><path class="k" d="M742.142,27.365a1.713,1.713,0,0,0,.632.648,2.959,2.959,0,0,0,.613.2,1.021,1.021,0,0,0,.581-.092l-.472-.368.416-.076a1.145,1.145,0,0,0,.5-.2.867.867,0,0,1-.4-.131.332.332,0,0,1-.142-.237,1.384,1.384,0,0,0,.626-.01,1.558,1.558,0,0,0,.541-.368.485.485,0,0,1-.388-.231s.318-.183.5-.277a1.086,1.086,0,0,0,.376-.4,2.04,2.04,0,0,1-.443.054.727.727,0,0,1-.271-.058,1.468,1.468,0,0,0,.513-.31.858.858,0,0,0,.263-.57l-.412.074a4.223,4.223,0,0,0,.428-.449,1.873,1.873,0,0,0,.15-.525l-.42.172a3.483,3.483,0,0,0,.229-.339,1.1,1.1,0,0,0,.135-.442l-.353.088a1.374,1.374,0,0,0,.183-.633,2.879,2.879,0,0,0-.065-.639l-.533.365-.12-.292a1.691,1.691,0,0,0-.45.527l-.054-.078a.611.611,0,0,1-.074-.252,1.429,1.429,0,0,0-.434.507l-.094-.292a.71.71,0,0,0-.321.536.628.628,0,0,1-.172-.127.9.9,0,0,1-.145-.161.693.693,0,0,0-.22.238.769.769,0,0,0-.07.47.54.54,0,0,1-.358-.149c-.094-.107-.177-.2-.177-.2s-.218.231-.175.421a.961.961,0,0,1,.019.4l-.438-.118a2.018,2.018,0,0,0-.116.439.821.821,0,0,0,.1.5.863.863,0,0,1-.353.025l-.269-.114a.885.885,0,0,0,0,.489,1.656,1.656,0,0,0,.212.328l-.361.025a1.007,1.007,0,0,0,.291.662l-.317-.063a1.054,1.054,0,0,0,.4.671A1.628,1.628,0,0,0,742.142,27.365Z" transform="translate(-663.061 -18.302)"/><path class="j" d="M741.419,29.424a1.742,1.742,0,0,0-.624.653,2.527,2.527,0,0,0-.164.624.938.938,0,0,0,.1.573l.35-.485.091.414a1.076,1.076,0,0,0,.226.487.9.9,0,0,1,.113-.4.328.328,0,0,1,.231-.15,1.365,1.365,0,0,0,.036.625,1.462,1.462,0,0,0,.382.525.476.476,0,0,1,.22-.394s.194.311.293.485a1.113,1.113,0,0,0,.414.359,1.945,1.945,0,0,1-.075-.434.923.923,0,0,1,.053-.275,1.488,1.488,0,0,0,.321.5.856.856,0,0,0,.581.238l-.084-.406a3.836,3.836,0,0,0,.46.409,1.964,1.964,0,0,0,.533.132l-.186-.413a3.773,3.773,0,0,0,.344.216,1.218,1.218,0,0,0,.454.124l-.113-.351a1.464,1.464,0,0,0,.648.157,3,3,0,0,0,.629-.085l-.383-.523.284-.131a1.576,1.576,0,0,0-.536-.43l.073-.056a.57.57,0,0,1,.247-.085,1.419,1.419,0,0,0-.519-.412l.288-.109a.722.722,0,0,0-.545-.3.6.6,0,0,1,.116-.182.743.743,0,0,1,.158-.143.646.646,0,0,0-.242-.213.824.824,0,0,0-.478-.056.508.508,0,0,1,.136-.361c.1-.1.191-.186.191-.186s-.239-.208-.42-.158a.886.886,0,0,1-.409.033l.1-.442a2.054,2.054,0,0,0-.439-.1.774.774,0,0,0-.491.121.892.892,0,0,1-.037-.359l.1-.268a.9.9,0,0,0-.485.022,1.7,1.7,0,0,0-.325.222L743,28.085c-.315-.033-.654.325-.654.325l.056-.328a1.058,1.058,0,0,0-.659.424A1.685,1.685,0,0,0,741.419,29.424Z" transform="translate(-663.145 -16.104)"/><path class="k" d="M741.419,29.424a1.742,1.742,0,0,0-.624.653,2.527,2.527,0,0,0-.164.624.938.938,0,0,0,.1.573l.35-.485.091.414a1.076,1.076,0,0,0,.226.487.9.9,0,0,1,.113-.4.328.328,0,0,1,.231-.15,1.365,1.365,0,0,0,.036.625,1.462,1.462,0,0,0,.382.525.476.476,0,0,1,.22-.394s.194.311.293.485a1.113,1.113,0,0,0,.414.359,1.945,1.945,0,0,1-.075-.434.923.923,0,0,1,.053-.275,1.488,1.488,0,0,0,.321.5.856.856,0,0,0,.581.238l-.084-.406a3.836,3.836,0,0,0,.46.409,1.964,1.964,0,0,0,.533.132l-.186-.413a3.773,3.773,0,0,0,.344.216,1.218,1.218,0,0,0,.454.124l-.113-.351a1.464,1.464,0,0,0,.648.157,3,3,0,0,0,.629-.085l-.383-.523.284-.131a1.576,1.576,0,0,0-.536-.43l.073-.056a.57.57,0,0,1,.247-.085,1.419,1.419,0,0,0-.519-.412l.288-.109a.722.722,0,0,0-.545-.3.6.6,0,0,1,.116-.182.743.743,0,0,1,.158-.143.646.646,0,0,0-.242-.213.824.824,0,0,0-.478-.056.508.508,0,0,1,.136-.361c.1-.1.191-.186.191-.186s-.239-.208-.42-.158a.886.886,0,0,1-.409.033l.1-.442a2.054,2.054,0,0,0-.439-.1.774.774,0,0,0-.491.121.892.892,0,0,1-.037-.359l.1-.268a.9.9,0,0,0-.485.022,1.7,1.7,0,0,0-.325.222L743,28.085c-.315-.033-.654.325-.654.325l.056-.328a1.058,1.058,0,0,0-.659.424A1.685,1.685,0,0,0,741.419,29.424Z" transform="translate(-663.145 -16.104)"/><path class="l" d="M741.526,29.6a1.756,1.756,0,0,1-.3.851,2.59,2.59,0,0,1-.479.435,1,1,0,0,1-.562.162l.274-.534-.4.107a1.221,1.221,0,0,1-.549.032.893.893,0,0,0,.313-.293.343.343,0,0,0,.028-.275,1.365,1.365,0,0,1-.579.255,1.489,1.489,0,0,1-.637-.1.492.492,0,0,0,.252-.374s-.368-.032-.57-.039a1.1,1.1,0,0,1-.508-.207,1.863,1.863,0,0,0,.428-.131.858.858,0,0,0,.218-.169,1.471,1.471,0,0,1-.6-.065.863.863,0,0,1-.471-.409l.4-.109a4.611,4.611,0,0,1-.573-.22,2.014,2.014,0,0,1-.355-.416l.452-.019s-.167-.087-.35-.208a1.249,1.249,0,0,1-.316-.35l.359-.062a1.44,1.44,0,0,1-.43-.5,2.854,2.854,0,0,1-.216-.6l.646.106-.014-.315a1.631,1.631,0,0,1,.625.284l.018-.088a.56.56,0,0,0-.034-.259,1.45,1.45,0,0,1,.6.273l-.037-.306a.732.732,0,0,1,.514.351.6.6,0,0,0,.11-.185.9.9,0,0,0,.053-.2.609.609,0,0,1,.3.117.82.82,0,0,1,.271.4.546.546,0,0,0,.259-.284c.031-.139.071-.257.071-.257s.3.12.338.3a.859.859,0,0,0,.153.38l.352-.288a2.344,2.344,0,0,1,.288.351.834.834,0,0,1,.115.493.868.868,0,0,0,.331-.131l.194-.215a.848.848,0,0,1,.2.446,2.144,2.144,0,0,1-.045.388l.33-.134A1.017,1.017,0,0,1,742,28.3l.269-.194a1.04,1.04,0,0,1-.08.777A1.705,1.705,0,0,1,741.526,29.6Z" transform="translate(-664.752 -16.896)"/><path class="m" d="M741.526,29.6a1.756,1.756,0,0,1-.3.851,2.59,2.59,0,0,1-.479.435,1,1,0,0,1-.562.162l.274-.534-.4.107a1.221,1.221,0,0,1-.549.032.893.893,0,0,0,.313-.293.343.343,0,0,0,.028-.275,1.365,1.365,0,0,1-.579.255,1.489,1.489,0,0,1-.637-.1.492.492,0,0,0,.252-.374s-.368-.032-.57-.039a1.1,1.1,0,0,1-.508-.207,1.863,1.863,0,0,0,.428-.131.858.858,0,0,0,.218-.169,1.471,1.471,0,0,1-.6-.065.863.863,0,0,1-.471-.409l.4-.109a4.611,4.611,0,0,1-.573-.22,2.014,2.014,0,0,1-.355-.416l.452-.019s-.167-.087-.35-.208a1.249,1.249,0,0,1-.316-.35l.359-.062a1.44,1.44,0,0,1-.43-.5,2.854,2.854,0,0,1-.216-.6l.646.106-.014-.315a1.631,1.631,0,0,1,.625.284l.018-.088a.56.56,0,0,0-.034-.259,1.45,1.45,0,0,1,.6.273l-.037-.306a.732.732,0,0,1,.514.351.6.6,0,0,0,.11-.185.9.9,0,0,0,.053-.2.609.609,0,0,1,.3.117.82.82,0,0,1,.271.4.546.546,0,0,0,.259-.284c.031-.139.071-.257.071-.257s.3.12.338.3a.859.859,0,0,0,.153.38l.352-.288a2.344,2.344,0,0,1,.288.351.834.834,0,0,1,.115.493.868.868,0,0,0,.331-.131l.194-.215a.848.848,0,0,1,.2.446,2.144,2.144,0,0,1-.045.388l.33-.134A1.017,1.017,0,0,1,742,28.3l.269-.194a1.04,1.04,0,0,1-.08.777A1.705,1.705,0,0,1,741.526,29.6Z" transform="translate(-664.752 -16.896)"/><path class="n" d="M732.423,43.351a8.528,8.528,0,0,1-.537-1.026,7.018,7.018,0,0,0-.344-1.564c-.366-.749-.928-1.76-1.773-1.911l-.593-.12a.85.85,0,0,0,.629-.178c.226-.233.468-.505.468-.505a.98.98,0,0,0-.081.424,1.551,1.551,0,0,0,.158.372,2.21,2.21,0,0,1,.716.621,3.758,3.758,0,0,1,.759,1.51c.128.576.08,1.084.167,1.363a9.831,9.831,0,0,0,.432,1.013" transform="translate(-667.457 -12.348)"/><path class="n" d="M728.462,46.462a7.528,7.528,0,0,0-.3-1.118,7,7,0,0,1-.8-1.384c-.237-.8-.508-1.923.014-2.606l.353-.5a.869.869,0,0,1-.584.3c-.323-.012-.68-.05-.68-.05a.968.968,0,0,1,.341.251,1.681,1.681,0,0,1,.135.383,2.227,2.227,0,0,0-.1.938,3.693,3.693,0,0,0,.465,1.627c.291.509.668.856.8,1.117.15.326.371,1.04.371,1.04" transform="translate(-668.481 -11.29)"/><path class="n" d="M727.063,32.775a8.6,8.6,0,0,0,.635.961c.285.307.807.492,1.2,1.055.482.687,1.086,1.673.81,2.488l-.178.577a.844.844,0,0,1,.46-.467c.307-.089.668-.167.668-.167a1.062,1.062,0,0,1-.409-.138,1.475,1.475,0,0,1-.25-.317,2.269,2.269,0,0,0-.2-.924,3.658,3.658,0,0,0-.958-1.392c-.438-.4-.906-.6-1.11-.812a10.814,10.814,0,0,1-.676-.865" transform="translate(-668.253 -14.335)"/><path class="n" d="M727.028,22.654a7.646,7.646,0,0,0,.575.874c.253.274.727.442,1.078.947.437.618.982,1.5.735,2.235l-.167.518a.778.778,0,0,1,.418-.417c.274-.083.6-.146.6-.146a.89.89,0,0,1-.366-.124,1.472,1.472,0,0,1-.226-.286,2.039,2.039,0,0,0-.178-.832,3.373,3.373,0,0,0-.858-1.256c-.392-.352-.818-.54-1-.731a8.672,8.672,0,0,1-.608-.782" transform="translate(-668.266 -18.149)"/><path class="n" d="M726.4,31.971a7.182,7.182,0,0,0,.891-.545c.285-.244.468-.7.993-1.045.635-.406,1.538-.921,2.255-.643l.516.182a.805.805,0,0,1-.406-.43c-.072-.281-.123-.607-.123-.607a.857.857,0,0,1-.138.358,1.266,1.266,0,0,1-.3.219,1.936,1.936,0,0,0-.833.145,3.3,3.3,0,0,0-1.289.814c-.37.374-.57.8-.767.968a9.435,9.435,0,0,1-.8.585" transform="translate(-668.504 -15.802)"/><path class="n" d="M735.532,26.52a7.539,7.539,0,0,1-.885.549,6.556,6.556,0,0,0-1.383.4c-.649.381-1.519.956-1.6,1.722l-.073.54a.8.8,0,0,0-.2-.556c-.216-.187-.482-.384-.482-.384a.921.921,0,0,0,.387.041,1.371,1.371,0,0,0,.324-.165,2.084,2.084,0,0,1,.508-.68,3.416,3.416,0,0,1,1.307-.777c.513-.157.971-.145,1.213-.244a7.335,7.335,0,0,0,.885-.45" transform="translate(-666.803 -16.692)"/><path class="n" d="M739.438,43.351a8.24,8.24,0,0,0,.533-1.026,7.265,7.265,0,0,1,.344-1.564c.366-.749.933-1.76,1.772-1.911l.6-.12a.849.849,0,0,1-.629-.178c-.229-.233-.468-.505-.468-.505a1.035,1.035,0,0,1,.079.424,1.777,1.777,0,0,1-.157.372,2.246,2.246,0,0,0-.715.621,3.63,3.63,0,0,0-.753,1.51c-.14.576-.094,1.084-.18,1.363a9.8,9.8,0,0,1-.423,1.013" transform="translate(-663.589 -12.348)"/><path class="n" d="M743.147,46.509a8.452,8.452,0,0,1,.3-1.121,6.763,6.763,0,0,0,.807-1.382c.242-.8.505-1.928-.011-2.612l-.357-.487a.874.874,0,0,0,.585.3c.321-.012.683-.058.683-.058a.949.949,0,0,0-.342.263,1.624,1.624,0,0,0-.139.384,2.162,2.162,0,0,1,.108.935,3.707,3.707,0,0,1-.468,1.625c-.291.511-.667.855-.8,1.122-.15.321-.369,1.035-.369,1.035" transform="translate(-662.192 -11.271)"/><path class="n" d="M744.894,32.775a7.865,7.865,0,0,1-.643.961c-.282.307-.8.492-1.2,1.055-.475.687-1.086,1.673-.812,2.488l.183.577a.871.871,0,0,0-.46-.467c-.311-.089-.666-.167-.666-.167a1.038,1.038,0,0,0,.406-.138,1.45,1.45,0,0,0,.25-.317,2.187,2.187,0,0,1,.2-.924,3.629,3.629,0,0,1,.951-1.392c.437-.4.9-.6,1.109-.812a10.822,10.822,0,0,0,.683-.865" transform="translate(-662.89 -14.335)"/><path class="n" d="M744.831,22.654a7.666,7.666,0,0,1-.581.874c-.252.274-.723.442-1.081.947-.429.618-.976,1.5-.728,2.235l.158.518a.758.758,0,0,0-.415-.417c-.277-.083-.594-.146-.594-.146a.912.912,0,0,0,.365-.124,1.641,1.641,0,0,0,.225-.286,1.965,1.965,0,0,1,.173-.832,3.406,3.406,0,0,1,.864-1.256c.4-.352.812-.54,1-.731a9.831,9.831,0,0,0,.615-.782" transform="translate(-662.778 -18.149)"/><path class="n" d="M745.847,31.971a7.334,7.334,0,0,1-.9-.545c-.28-.244-.468-.7-.99-1.045-.626-.406-1.535-.921-2.259-.643l-.511.182a.769.769,0,0,0,.4-.43c.076-.281.129-.607.129-.607a.817.817,0,0,0,.141.358,1.352,1.352,0,0,0,.291.219,1.952,1.952,0,0,1,.836.145,3.253,3.253,0,0,1,1.286.814c.376.374.573.8.768.968a9.113,9.113,0,0,0,.807.585" transform="translate(-662.929 -15.802)"/><path class="n" d="M736.7,26.52a7.5,7.5,0,0,0,.888.549,6.51,6.51,0,0,1,1.382.4c.65.381,1.513.956,1.6,1.722l.072.54a.783.783,0,0,1,.2-.556c.218-.187.482-.384.482-.384a.909.909,0,0,1-.385.041,1.473,1.473,0,0,1-.328-.165,2.034,2.034,0,0,0-.508-.68,3.356,3.356,0,0,0-1.306-.777c-.507-.157-.969-.145-1.213-.244a8.205,8.205,0,0,1-.883-.45" transform="translate(-664.62 -16.692)"/><path class="o" d="M735.7,36.731a4.375,4.375,0,0,0-.882.8" transform="translate(-665.329 -12.844)"/></g></svg>