<svg xmlns="http://www.w3.org/2000/svg" width="108.495" height="102.893" viewBox="0 0 108.495 102.893"><defs><style>.a{fill:#ffffff;fill-rule:evenodd;}</style></defs><g transform="translate(0 -0.687)"><g transform="translate(0 86.108)"><path class="a" d="M656.965,95.112V94.1h.029c.756,0,1.4-.036,2-.036h0l-2.025-4.7V86.285l.108-.264h1.349l4.293,9.691.6,1.279.375.865h0a1.23,1.23,0,0,0,.19.222c.078.077.11.114.183.114a1.536,1.536,0,0,0,.567.074c.11,0,.262.039.412.039h0v.788l-2.627-.07-3.383.07V98.3h0a8.656,8.656,0,0,0,1.315-.113.249.249,0,0,0,.147-.257,2.2,2.2,0,0,0-.22-.756h0l-.827-2.067Zm9.883,3.98v-.486h0c.147-.077.373-.189.669-.34a.892.892,0,0,0,.266-.189.128.128,0,0,0,.038-.112c.031-.147.069-.712.11-1.654,0-.979.035-2.1.035-3.416,0-1.992,0-3.193-.035-3.643a12.978,12.978,0,0,0-.11-1.991.381.381,0,0,0-.154-.189,5.22,5.22,0,0,0-1.462-.183h0V86.1h0c.825.037,1.727.037,2.774.037,1.17,0,2.259,0,3.308-.037h0v.793h0a4.479,4.479,0,0,0-1.309.183.373.373,0,0,0-.157.189,7.1,7.1,0,0,0-.113,1.13c-.031.671-.031,1.535-.031,2.588v2.705c.031.862.031,1.764.031,2.626v1.575c.906.047,1.509.047,1.805.047a17.84,17.84,0,0,0,2.557-.156,1.109,1.109,0,0,0,.446-.112.64.64,0,0,0,.152-.335,16.567,16.567,0,0,0,.378-1.621h.829a1.149,1.149,0,0,0-.04.3h0l-.264,1.874h0c-.034.57-.07.947-.07,1.062-.193.029-.373.073-.57.109-.373,0-.974.034-1.8.034-.11,0-.86-.034-2.254-.034-1.054-.036-1.766-.036-2.178-.036-.643,0-1.579,0-2.85.07Zm11.977,0v-.486h0c.147-.077.376-.189.677-.34a.832.832,0,0,0,.26-.189.118.118,0,0,0,.044-.112c.032-.147.072-.712.113-1.654,0-.979.031-2.1.031-3.416,0-1.992-.031-3.193-.031-3.643-.042-1.168-.081-1.838-.113-1.991a.42.42,0,0,0-.157-.189,5.192,5.192,0,0,0-1.465-.183h0V86.1h0c.83.037,1.735.037,2.781.037,1.166,0,2.253,0,3.307-.037h0v.793h0a4.567,4.567,0,0,0-1.315.183c-.073.04-.152.11-.152.189a6.357,6.357,0,0,0-.11,1.13c-.04.671-.04,1.535-.04,2.588v2.705c0,.862.04,1.764.04,2.626v1.575c.863.047,1.461.047,1.8.047a16.9,16.9,0,0,0,2.517-.156,1.524,1.524,0,0,0,.49-.112.775.775,0,0,0,.147-.335,13.915,13.915,0,0,0,.37-1.621h.8v.3h0l-.264,1.874h0c-.031.57-.077.947-.077,1.062-.188.029-.375.073-.563.109-.376,0-.976.034-1.8.034-.113,0-.863-.034-2.251-.034-1.055-.036-1.766-.036-2.218-.036-.6,0-1.579,0-2.818.07ZM696.484,86.1v.793h0c-.646.034-1.022.07-1.168.07a.639.639,0,0,0-.229.113c-.072.04-.11.078-.11.149a3.806,3.806,0,0,0-.11.6c0,.189,0,.487-.037.9,0,1.537-.039,2.364-.039,2.48h0v3.755l.039,1.692h0a4.22,4.22,0,0,0,.11,1.232.3.3,0,0,0,.116.19.356.356,0,0,0,.3.114,5.073,5.073,0,0,0,1.129.074h0v.826h0c-1.055-.034-2.147-.07-3.346-.07-1.013,0-1.914.036-2.74.07h0v-.826h0a10.058,10.058,0,0,0,1.159-.074.465.465,0,0,0,.266-.072c.042-.079.076-.112.076-.154a4.7,4.7,0,0,0,.113-.9c.037-.715.076-1.431.076-2.064h0V91.131h0c0-1.235-.039-2.031-.039-2.365-.037-.789-.077-1.274-.115-1.5-.035-.078-.035-.11-.069-.189A.556.556,0,0,0,691.6,87a7.144,7.144,0,0,0-1.2-.109h0V86.1h0c.826.037,1.727.037,2.776.037,1.163,0,2.255,0,3.31-.037Zm-39.52.187v3.081l-.037-.113-1.961,4.808h0c.6,0,1.245.036,2,.036v1.015H654.52l-.41,1.128h0a6.561,6.561,0,0,0-.488,1.579.366.366,0,0,0,.149.336,4.013,4.013,0,0,0,1.386.15h0v.788h0l-2.215-.07-2.215.07V98.3h0c.526-.039.824-.074.937-.074.078-.039.183-.076.226-.153a.762.762,0,0,0,.226-.259c.073-.151.3-.6.673-1.431.153-.374.489-1.125.94-2.291h0l2.514-5.973.721-1.839ZM628.111,99.4V98.343a.138.138,0,0,0,.113.037,4.224,4.224,0,0,0,2.181-.562,3.826,3.826,0,0,0,1.5-1.918,8.969,8.969,0,0,0,.522-3.194,9.574,9.574,0,0,0-.3-2.4,5.538,5.538,0,0,0-.823-1.842,4.115,4.115,0,0,0-1.278-1.126,4.043,4.043,0,0,0-1.919-.412V85.87h.15a10.193,10.193,0,0,1,3.155.454,6.088,6.088,0,0,1,1.88,1.052,6.959,6.959,0,0,1,1.243,1.389,6.314,6.314,0,0,1,.824,3.456,8.525,8.525,0,0,1-.6,3.265,5.874,5.874,0,0,1-1.351,2,6.666,6.666,0,0,1-2.027,1.311,8.752,8.752,0,0,1-3.272.6Zm21.414-2.217.26.226-.452.939h0a9.734,9.734,0,0,1-2.138.826,10.761,10.761,0,0,1-2.406.226,9.442,9.442,0,0,1-3.563-.6,6.731,6.731,0,0,1-2.071-1.311,6.582,6.582,0,0,1-1.992-5,6.054,6.054,0,0,1,2.071-4.773,8.156,8.156,0,0,1,5.784-1.842,11.445,11.445,0,0,1,2.327.186,17.221,17.221,0,0,1,2.365.642h0l.076.151h0a5.174,5.174,0,0,0-.26,1.089c-.076.676-.149,1.351-.191,1.918h-.748c0-.679-.042-1.2-.081-1.621a4.165,4.165,0,0,0-1.462-.973,5.126,5.126,0,0,0-2.025-.337,4.925,4.925,0,0,0-3.612,1.389,5.335,5.335,0,0,0-1.344,3.869,6.879,6.879,0,0,0,.444,2.594,5.115,5.115,0,0,0,1.236,1.838,5.336,5.336,0,0,0,1.509,1.088,6.307,6.307,0,0,0,2.517.452,7.961,7.961,0,0,0,1.879-.22,8.454,8.454,0,0,0,1.878-.756ZM628.111,85.87v1.055h-.073a4.314,4.314,0,0,0-2.367.636,3.477,3.477,0,0,0-1.428,1.881h0a8.042,8.042,0,0,0-.455,2.741,9.092,9.092,0,0,0,.606,3.606,4.12,4.12,0,0,0,1.575,1.99,3.956,3.956,0,0,0,2.141.564V99.4h-.259a7.978,7.978,0,0,1-3.686-.752,5.552,5.552,0,0,1-2.437-2.215h0a6.914,6.914,0,0,1-.869-3.682,7.2,7.2,0,0,1,.525-2.966,5.58,5.58,0,0,1,1.5-2.141,6.373,6.373,0,0,1,2.144-1.283,10.17,10.17,0,0,1,3.079-.486Zm-16.836,9.241V94.1h0c.753,0,1.4-.036,2-.036h0l-2-4.7V86.285l.079-.264h1.4l4.278,9.691.567,1.279.409.865h0a.58.58,0,0,0,.154.222.313.313,0,0,0,.223.114,1.5,1.5,0,0,0,.566.074c.074,0,.226.039.413.039h0v.788l-2.668-.07-3.38.07V98.3h0a7.9,7.9,0,0,0,1.312-.113.241.241,0,0,0,.15-.257,2.231,2.231,0,0,0-.223-.756h0l-.825-2.067ZM597.61,90.227l1.572-2.477h0c.263-.448,1.052-1.768,2.364-4.023.455-.783.756-1.272.872-1.534h1.949v.562h0c-1.012,1.312-2.107,2.857-3.264,4.622s-1.881,2.889-2.144,3.417a4.566,4.566,0,0,0-.379.9,4.851,4.851,0,0,0-.076.9h0V94.62h0a16.3,16.3,0,0,0,.115,2.262,1.717,1.717,0,0,0,.192.821.55.55,0,0,0,.37.231,15.99,15.99,0,0,0,1.614.107h0v1.051h0c-1.574-.034-3-.07-4.283-.07-1.235,0-2.474.036-3.749.07h0V98.042h0c.939-.033,1.462-.076,1.651-.107a.773.773,0,0,0,.336-.191,3.063,3.063,0,0,0,.116-.713c.038-.94.079-1.729.079-2.367h0v-2.3h0a3.292,3.292,0,0,0-.455-1.129c-.787-1.382-1.619-2.739-2.52-4.086a16.53,16.53,0,0,0-2.028-2.631,3.372,3.372,0,0,0-.866-.794,5.18,5.18,0,0,0-1.086-.07h0v-.9l2.63-.529h0c.452-.076.9-.184,1.39-.3a7.386,7.386,0,0,1,1.089.719,10.983,10.983,0,0,1,.976,1.2,30.624,30.624,0,0,1,1.805,3.006c.935,1.841,1.543,2.964,1.729,3.377Zm13.665-3.942v3.081l-.069-.113-1.952,4.808h0c.6,0,1.279.036,2.021.036v1.015H608.8l-.413,1.128h0a9.628,9.628,0,0,0-.485,1.579.47.47,0,0,0,.147.336,4.406,4.406,0,0,0,1.391.15h0v.788h0l-2.218-.07-2.212.07V98.3h0c.52-.039.825-.074.935-.074a.609.609,0,0,0,.264-.153.657.657,0,0,0,.22-.259c.043-.151.271-.6.64-1.431.153-.374.491-1.125.943-2.291h0l2.519-5.973Z" transform="translate(-587.99 -81.923)"/></g><g transform="translate(22.356 0.687)"><path class="a" d="M604.227,19.881v26.1h67.808v-26.1Zm51.467,10.24-5.243,4.925-2.926-6.1h7Zm-4.9,10.2h-9.369V38.478h8.918Zm-2.926-8.071,1.052,2.2h-6.892v-2.2Zm-5.84-1.051V28.556H646.2l1.21,2.644Zm5.708-3.833h-5.248v-1.3h4.608ZM635.34,22.021h6.683l.46,1.265H634.65Zm5.948,2.409V34.3h-5.511V24.43ZM629.647,31.2l1.24-2.644h4.187V31.2Zm5.427,1.037v2.214h-7.022l1.06-2.185Zm-4.754-6.172h4.329v1.3h-5Zm-7.673,2.88h7l-2.926,6.1-5.246-4.925Zm-5.725-2.655h.318l.088-.65h2.731l.07.595h.245v.6h-3.453Zm.318,11.446v-9.88h2.82v2.006l-1.648,7.874Zm2.3.335,1.416-7,5.195,5.01-1.4,6.7ZM635.416,43.2h-9.8l.446-1.864h9.353Zm0-4.162v1.28h-9.135l.44-1.844h8.695Zm.844,3.9V38.877s-.019-1.725,2.3-1.725c2.073,0,2.065,1.71,2.065,1.71l.008,4.074Zm2.184-6.625a2.846,2.846,0,0,0-2.667,1.3h-8.985l.269-1.454.383-.87h22.19l.328.785.393,1.559-9.164-.008S640.63,36.311,638.444,36.311Zm2.977,6.892V41.339h9.6l.457,1.864Zm11-.421-1.4-6.7,5.192-5.01,1.418,7Zm7.458-5.046H658.7l-1.648-7.874V27.856h2.818Zm.317-10.9h-3.456v-.6h.248l.073-.595h2.729l.089.65h.317Z" transform="translate(-604.227 -19.881)"/><path class="a" d="M604.227,38.664V60.213a33.571,33.571,0,0,0,33.448,33.555h.694a33.737,33.737,0,0,0,33.667-33.555V38.664Zm2.2,31.374a33.378,33.378,0,0,1-1.552-9.955V38.989H637.4Zm31.717,23.069c-13.569,0-21.19-7.575-21.19-7.575l21.19-21.148,21.2,21.148S651.721,93.107,638.145,93.107Zm31.743-23.069L638.915,38.989h32.522V60.083A33.425,33.425,0,0,1,669.888,70.038Z" transform="translate(-604.227 -12.803)"/></g></g></svg>